<svg width="1513" height="387" viewBox="0 0 1513 387" fill="none" xmlns="http://www.w3.org/2000/svg">
<g clip-path="url(#clip0_1010_1408)">
<rect width="1513" height="387" fill="#0A0A0A"/>
<g filter="url(#filter0_i_1010_1408)">
<path d="M34.9435 34.5975L34.9465 34.5992L35.0194 34.638L35.0843 34.6694C35.1749 34.7132 35.3041 34.7757 35.4589 34.8509C35.7685 35.0012 36.1805 35.2019 36.5898 35.4036C36.999 35.6052 37.4057 35.8078 37.7046 35.9618C37.8541 36.0388 37.9767 36.1036 38.0592 36.1501C38.1005 36.1734 38.1316 36.192 38.1511 36.2052C38.1609 36.2119 38.1676 36.2171 38.1711 36.2207L38.173 36.2229L38.1734 36.2236L38.1735 36.2238C38.1735 36.2239 38.1735 36.2238 38.1735 36.2239C38.1735 36.2238 38.1734 36.2233 38.1738 36.2228C38.1741 36.2222 38.1745 36.2222 38.1742 36.2223L38.1754 36.2255L38.1765 36.2288L38.177 36.2302L38.1758 36.2296C39.0747 36.6839 39.5383 37.2323 39.7419 37.7843C39.9456 38.3366 39.8891 38.8931 39.7468 39.3635L35.5414 47.256L35.5417 47.2561L35.5255 47.2865L29.6326 58.3422C29.6325 58.3423 29.6325 58.3423 29.6324 58.3424C29.45 58.5909 29.1617 58.887 28.7619 59.042C28.3622 59.1969 27.8506 59.211 27.2213 58.8947L27.2198 58.8978L27.2186 58.9001C27.2182 58.9002 27.2177 58.9003 27.2171 58.9003L27.2166 58.8991C27.2167 58.8993 27.2164 58.8988 27.2167 58.8979C27.2171 58.897 27.2178 58.8968 27.2178 58.8967C27.2178 58.8967 27.2176 58.8968 27.2168 58.8968L27.2139 58.8964C27.209 58.8955 27.201 58.893 27.1899 58.8888C27.1678 58.8805 27.1345 58.8661 27.0914 58.8465C27.0052 58.8071 26.8803 58.7466 26.7294 58.6719C26.4278 58.5225 26.0227 58.316 25.6165 58.1072C25.2103 57.8984 24.8032 57.6872 24.4975 57.5281C24.3447 57.4486 24.2173 57.3822 24.1281 57.3356L24.0245 57.2815L23.9972 57.2672L23.9902 57.2636L23.9884 57.2626L23.988 57.2624L23.9879 57.2623L23.9953 57.2481L23.9835 57.2633L20.4155 61.8535L20.4182 61.8557L20.421 61.8578L20.4325 61.8667L26.2066 64.7799C26.8404 65.1008 27.4653 65.4242 28.0839 65.7442L28.094 65.7495C28.5217 65.9708 28.9463 66.1905 29.3688 66.4068L25.6385 73.4117L25.6416 73.4133L25.6446 73.4149L25.7811 73.4876L30.0839 75.6593L30.0149 75.7959L30.0885 75.6578L33.781 68.7277C34.9864 69.3663 36.1601 69.9701 37.3118 70.5501L33.6341 77.4469L33.6372 77.4485L33.6402 77.4501L33.7716 77.5202L38.0851 79.6959L38.0177 79.8295L38.0897 79.6944L41.8166 72.7032C45.6638 74.3862 49.1342 75.4416 52.1677 75.2851C55.2023 75.1285 57.7994 73.7592 59.8989 70.5932C61.59 68.0445 62.0894 65.836 61.6991 63.8757C61.3093 61.918 60.0326 60.2086 58.1711 58.6557C59.7894 58.6824 61.2928 58.3512 62.5879 57.5339C63.8857 56.7149 64.9741 55.408 65.7593 53.4849L65.7727 53.4903L65.7589 53.4812C66.8354 50.856 66.4597 48.5507 65.1289 46.4801C63.7982 44.4098 61.5126 42.5741 58.7694 40.8872L62.4597 33.9621L62.4566 33.9604L62.4536 33.9588L62.3205 33.8879L58.0089 31.7131L58.077 31.5781L58.0043 31.7146L54.4116 38.4573C53.244 37.8681 52.039 37.2879 50.8412 36.7119L54.4587 29.9252L54.4557 29.9236L54.4526 29.9219L54.3194 29.8509L54.3193 29.8509L50.0109 27.6769L50.0786 27.5427L50.0062 27.6784L46.3155 34.6008C45.3447 34.1346 44.3915 33.6754 43.471 33.2115L43.4804 33.1926L44.6946 33.802L43.4789 33.188L37.344 30.0898L37.4144 29.9504L37.3394 30.0913L34.9404 34.5959L34.9435 34.5975ZM34.9435 34.5975L34.942 34.6007L34.942 34.6007L34.9435 34.5975ZM37.465 64.1178C37.1417 63.9493 36.8527 63.7986 36.6048 63.6737L41.55 54.3965C41.8527 54.5492 42.2243 54.7263 42.6451 54.9268L42.6458 54.9272C44.5346 55.8273 47.4134 57.1991 49.4928 58.9599C50.5325 59.8402 51.372 60.8176 51.7882 61.8815C52.2043 62.9452 52.1972 64.0957 51.5432 65.3228C50.9042 66.5232 49.9314 67.166 48.7749 67.4256C47.6182 67.6853 46.2777 67.5617 44.9037 67.229C42.1558 66.5635 39.2754 65.0617 37.4667 64.1187L37.465 64.1178ZM48.3018 41.727C48.5548 41.8545 48.8661 42.0018 49.2188 42.1687L49.2188 42.1687L49.2203 42.1656L49.2189 42.1688L49.2208 42.1697C50.7983 42.9161 53.2013 44.0531 54.9126 45.5617C55.7682 46.316 56.4506 47.1629 56.7706 48.1001C57.0905 49.0371 57.0482 50.0646 56.4538 51.1804C55.8722 52.2711 55.0255 52.8737 54.0355 53.1396C53.0454 53.4054 51.9118 53.3344 50.7564 53.0775C48.4456 52.5638 46.0489 51.3067 44.542 50.5162L44.5413 50.5159C44.2692 50.3731 44.0261 50.2457 43.8178 50.1405L48.3018 41.727ZM35.5438 47.2572L35.5445 47.2576L35.5475 47.2592L35.7084 47.345C35.7092 47.3454 35.71 47.3458 35.7108 47.3463L35.543 47.2607C35.6556 47.3181 35.7977 47.395 35.951 47.4963L35.8711 47.456L35.8701 47.4555C35.7608 47.4002 35.6471 47.3427 35.5301 47.285L35.5438 47.2572ZM34.0935 17.1279C45.0387 0.258915 71.1035 6.46845 73.2672 26.4605C73.959 32.8526 77.491 38.5939 82.8846 42.0935C99.7536 53.0387 93.5441 79.1035 73.5521 81.2672C67.16 81.959 61.4187 85.491 57.9191 90.8846C46.9738 107.754 20.9091 101.544 18.7454 81.5521C18.0536 75.1599 14.5215 69.4187 9.12792 65.9191C-7.74108 54.9738 -1.53155 28.9091 18.4605 26.7454C24.8526 26.0536 30.5939 22.5215 34.0935 17.1279Z" fill="url(#paint0_linear_1010_1408)" stroke="url(#paint1_linear_1010_1408)" stroke-width="0.00692638"/>
</g>
<g filter="url(#filter1_i_1010_1408)">
<path d="M1456.94 14.5975L1456.95 14.5992L1457.02 14.638L1457.08 14.6694C1457.18 14.7132 1457.3 14.7757 1457.46 14.8509C1457.77 15.0012 1458.18 15.2019 1458.59 15.4036C1459 15.6052 1459.41 15.8078 1459.7 15.9618C1459.85 16.0388 1459.98 16.1036 1460.06 16.1501C1460.1 16.1734 1460.13 16.192 1460.15 16.2052C1460.16 16.2119 1460.17 16.2171 1460.17 16.2207L1460.17 16.2229L1460.17 16.2236L1460.17 16.2238C1460.17 16.2239 1460.17 16.2238 1460.17 16.2239C1460.17 16.2238 1460.17 16.2233 1460.17 16.2228C1460.17 16.2222 1460.17 16.2222 1460.17 16.2223L1460.18 16.2255L1460.18 16.2288L1460.18 16.2302L1460.18 16.2296C1461.07 16.6839 1461.54 17.2323 1461.74 17.7843C1461.95 18.3366 1461.89 18.8931 1461.75 19.3635L1457.54 27.256L1457.54 27.2561L1457.53 27.2865L1451.63 38.3422C1451.63 38.3423 1451.63 38.3423 1451.63 38.3424C1451.45 38.5909 1451.16 38.887 1450.76 39.042C1450.36 39.1969 1449.85 39.211 1449.22 38.8947L1449.22 38.8978L1449.22 38.9001C1449.22 38.9002 1449.22 38.9003 1449.22 38.9003L1449.22 38.8991C1449.22 38.8993 1449.22 38.8988 1449.22 38.8979C1449.22 38.897 1449.22 38.8968 1449.22 38.8967C1449.22 38.8967 1449.22 38.8968 1449.22 38.8968L1449.21 38.8964C1449.21 38.8955 1449.2 38.893 1449.19 38.8888C1449.17 38.8805 1449.13 38.8661 1449.09 38.8465C1449.01 38.8071 1448.88 38.7466 1448.73 38.6719C1448.43 38.5225 1448.02 38.316 1447.62 38.1072C1447.21 37.8984 1446.8 37.6872 1446.5 37.5281C1446.34 37.4486 1446.22 37.3822 1446.13 37.3356L1446.02 37.2815L1446 37.2672L1445.99 37.2636L1445.99 37.2626L1445.99 37.2624L1445.99 37.2623L1446 37.2481L1445.98 37.2633L1442.42 41.8535L1442.42 41.8557L1442.42 41.8578L1442.43 41.8667L1448.21 44.7799C1448.84 45.1008 1449.47 45.4242 1450.08 45.7442L1450.09 45.7495C1450.52 45.9708 1450.95 46.1905 1451.37 46.4068L1447.64 53.4117L1447.64 53.4133L1447.64 53.4149L1447.78 53.4876L1452.08 55.6593L1452.02 55.7959L1452.09 55.6578L1455.78 48.7277C1456.99 49.3663 1458.16 49.9701 1459.31 50.5501L1455.63 57.4469L1455.64 57.4485L1455.64 57.4501L1455.77 57.5202L1460.09 59.6959L1460.02 59.8295L1460.09 59.6944L1463.82 52.7032C1467.66 54.3862 1471.13 55.4416 1474.17 55.2851C1477.2 55.1285 1479.8 53.7592 1481.9 50.5932C1483.59 48.0445 1484.09 45.836 1483.7 43.8757C1483.31 41.918 1482.03 40.2086 1480.17 38.6557C1481.79 38.6824 1483.29 38.3512 1484.59 37.5339C1485.89 36.7149 1486.97 35.408 1487.76 33.4849L1487.77 33.4903L1487.76 33.4812C1488.84 30.856 1488.46 28.5507 1487.13 26.4801C1485.8 24.4098 1483.51 22.5741 1480.77 20.8872L1484.46 13.9621L1484.46 13.9604L1484.45 13.9588L1484.32 13.8879L1480.01 11.7131L1480.08 11.5781L1480 11.7146L1476.41 18.4573C1475.24 17.8681 1474.04 17.2879 1472.84 16.7119L1476.46 9.92519L1476.46 9.92356L1476.45 9.92193L1476.32 9.8509L1476.32 9.85087L1472.01 7.67692L1472.08 7.54266L1472.01 7.67838L1468.32 14.6008C1467.34 14.1346 1466.39 13.6754 1465.47 13.2115L1465.48 13.1926L1466.69 13.802L1465.48 13.188L1459.34 10.0898L1459.41 9.95038L1459.34 10.0913L1456.94 14.5959L1456.94 14.5975ZM1456.94 14.5975L1456.94 14.6007L1456.94 14.6007L1456.94 14.5975ZM1459.47 44.1178C1459.14 43.9493 1458.85 43.7986 1458.6 43.6737L1463.55 34.3965C1463.85 34.5492 1464.22 34.7263 1464.65 34.9268L1464.65 34.9272C1466.53 35.8273 1469.41 37.1991 1471.49 38.9599C1472.53 39.8402 1473.37 40.8176 1473.79 41.8815C1474.2 42.9452 1474.2 44.0957 1473.54 45.3228C1472.9 46.5232 1471.93 47.166 1470.78 47.4256C1469.62 47.6853 1468.28 47.5617 1466.9 47.229C1464.16 46.5635 1461.28 45.0617 1459.47 44.1187L1459.47 44.1178ZM1470.3 21.727C1470.55 21.8545 1470.87 22.0018 1471.22 22.1687L1471.22 22.1687L1471.22 22.1656L1471.22 22.1688L1471.22 22.1697C1472.8 22.9161 1475.2 24.0531 1476.91 25.5617C1477.77 26.316 1478.45 27.1629 1478.77 28.1001C1479.09 29.0371 1479.05 30.0646 1478.45 31.1804C1477.87 32.2711 1477.03 32.8737 1476.04 33.1396C1475.05 33.4054 1473.91 33.3344 1472.76 33.0775C1470.45 32.5638 1468.05 31.3067 1466.54 30.5162L1466.54 30.5159C1466.27 30.3731 1466.03 30.2457 1465.82 30.1405L1470.3 21.727ZM1457.54 27.2572L1457.54 27.2576L1457.55 27.2592L1457.71 27.345C1457.71 27.3454 1457.71 27.3458 1457.71 27.3463L1457.54 27.2607C1457.66 27.3181 1457.8 27.395 1457.95 27.4963L1457.87 27.456L1457.87 27.4555C1457.76 27.4002 1457.65 27.3427 1457.53 27.285L1457.54 27.2572ZM1456.09 -2.87208C1467.04 -19.7411 1493.1 -13.5316 1495.27 6.46046C1495.96 12.8526 1499.49 18.5939 1504.88 22.0935C1521.75 33.0387 1515.54 59.1035 1495.55 61.2672C1489.16 61.959 1483.42 65.491 1479.92 70.8846C1468.97 87.7536 1442.91 81.5441 1440.75 61.5521C1440.05 55.1599 1436.52 49.4187 1431.13 45.9191C1414.26 34.9738 1420.47 8.90906 1440.46 6.74538C1446.85 6.05357 1452.59 2.52152 1456.09 -2.87208Z" fill="url(#paint2_linear_1010_1408)" stroke="url(#paint3_linear_1010_1408)" stroke-width="0.00692638"/>
</g>
<g filter="url(#filter2_i_1010_1408)">
<path d="M1385.78 404.65L1385.78 404.647L1385.83 404.581L1385.87 404.522C1385.93 404.439 1386.01 404.32 1386.11 404.179C1386.3 403.895 1386.56 403.518 1386.82 403.144C1387.08 402.769 1387.35 402.398 1387.54 402.125C1387.64 401.989 1387.72 401.878 1387.78 401.803C1387.81 401.766 1387.84 401.738 1387.85 401.721C1387.86 401.712 1387.87 401.706 1387.87 401.703L1387.87 401.702L1387.87 401.701L1387.87 401.701C1387.87 401.701 1387.87 401.701 1387.87 401.701C1387.87 401.701 1387.87 401.701 1387.87 401.701C1387.87 401.7 1387.87 401.7 1387.87 401.7L1387.87 401.7L1387.88 401.699L1387.88 401.699L1387.88 401.7C1388.46 400.879 1389.08 400.503 1389.65 400.385C1390.23 400.267 1390.77 400.406 1391.21 400.618L1398.38 405.962L1398.38 405.962L1398.41 405.982L1408.46 413.47C1408.46 413.47 1408.46 413.47 1408.46 413.47C1408.67 413.688 1408.92 414.018 1409.02 414.436C1409.11 414.855 1409.05 415.363 1408.64 415.937L1408.64 415.939L1408.64 415.941C1408.64 415.941 1408.64 415.942 1408.64 415.942L1408.64 415.943C1408.64 415.943 1408.64 415.943 1408.64 415.942C1408.64 415.942 1408.64 415.941 1408.64 415.941C1408.64 415.941 1408.64 415.941 1408.64 415.942L1408.64 415.945C1408.64 415.95 1408.63 415.957 1408.63 415.967C1408.62 415.988 1408.6 416.019 1408.57 416.058C1408.52 416.138 1408.44 416.252 1408.35 416.39C1408.15 416.666 1407.89 417.035 1407.62 417.405C1407.35 417.776 1407.08 418.146 1406.88 418.425C1406.78 418.564 1406.69 418.68 1406.63 418.761L1406.56 418.855L1406.55 418.88L1406.54 418.886L1406.54 418.888L1406.54 418.888L1406.54 418.888L1406.53 418.879L1406.54 418.893L1410.54 423.11L1410.54 423.108L1410.55 423.106L1410.56 423.096L1414.31 417.825C1414.72 417.247 1415.13 416.678 1415.54 416.114L1415.55 416.105C1415.83 415.715 1416.11 415.329 1416.39 414.943L1422.75 419.684L1422.76 419.682L1422.76 419.679L1422.85 419.555L1425.64 415.628L1425.77 415.716L1425.64 415.623L1419.35 410.93C1420.16 409.835 1420.93 408.765 1421.68 407.714L1427.94 412.386L1427.95 412.384L1427.95 412.381L1428.04 412.262L1430.84 408.324L1430.96 408.411L1430.84 408.319L1424.49 403.584C1426.73 400.033 1428.29 396.761 1428.59 393.738C1428.9 390.715 1427.93 387.941 1425.12 385.39C1422.85 383.335 1420.74 382.509 1418.75 382.6C1416.75 382.691 1414.87 383.696 1413.06 385.303C1413.33 383.707 1413.22 382.171 1412.61 380.768C1412 379.362 1410.87 378.089 1409.08 377.024L1409.09 377.011L1409.08 377.024C1406.65 375.565 1404.31 375.59 1402.07 376.594C1399.82 377.598 1397.66 379.582 1395.58 382.04L1389.29 377.351L1389.29 377.354L1389.28 377.357L1389.19 377.478L1386.4 381.413L1386.27 381.326L1386.4 381.418L1392.52 385.983C1391.76 387.049 1391.01 388.153 1390.26 389.251L1384.09 384.654L1384.09 384.657L1384.09 384.66L1384 384.781L1384 384.781L1381.2 388.713L1381.08 388.626L1381.2 388.718L1387.49 393.408C1386.89 394.297 1386.29 395.171 1385.69 396.011L1385.67 395.999L1386.46 394.89L1385.67 396L1381.68 401.599L1381.56 401.509L1381.68 401.604L1385.78 404.653L1385.78 404.65ZM1385.78 404.65L1385.78 404.652L1385.78 404.652L1385.78 404.65ZM1415.34 406.595C1415.13 406.889 1414.94 407.153 1414.77 407.379L1406.35 401.095C1406.54 400.819 1406.77 400.478 1407.04 400.092L1407.04 400.092C1408.21 398.36 1410 395.72 1412.05 393.929C1413.08 393.033 1414.17 392.35 1415.29 392.099C1416.4 391.847 1417.54 392.027 1418.65 392.858C1419.74 393.67 1420.23 394.729 1420.31 395.911C1420.4 397.094 1420.07 398.4 1419.54 399.709C1418.47 402.325 1416.55 404.947 1415.34 406.594L1415.34 406.595ZM1394.84 392.515C1395 392.284 1395.19 391.999 1395.41 391.675L1395.41 391.675L1395.41 391.673L1395.41 391.675L1395.41 391.673C1396.39 390.226 1397.87 388.021 1399.62 386.556C1400.5 385.824 1401.44 385.276 1402.41 385.101C1403.38 384.926 1404.39 385.122 1405.41 385.877C1406.4 386.616 1406.87 387.544 1406.98 388.563C1407.1 389.581 1406.85 390.691 1406.43 391.795C1405.57 394.002 1403.97 396.183 1402.96 397.554L1402.96 397.554C1402.78 397.802 1402.62 398.023 1402.48 398.213L1394.84 392.515ZM1398.39 405.96L1398.39 405.959L1398.39 405.956L1398.5 405.81C1398.5 405.809 1398.5 405.809 1398.5 405.808L1398.39 405.961C1398.46 405.858 1398.56 405.729 1398.68 405.593L1398.63 405.666L1398.63 405.667C1398.56 405.767 1398.49 405.87 1398.41 405.977L1398.39 405.96ZM1368.38 402.864C1353.35 389.507 1363.41 364.672 1383.5 365.539C1389.92 365.816 1396.13 363.187 1400.4 358.381C1413.75 343.349 1438.59 353.406 1437.72 373.496C1437.45 379.92 1440.07 386.127 1444.88 390.398C1459.91 403.755 1449.86 428.59 1429.77 427.723C1423.34 427.446 1417.13 430.075 1412.86 434.881C1399.51 449.913 1374.67 439.855 1375.54 419.765C1375.82 413.342 1373.19 407.135 1368.38 402.864Z" fill="url(#paint4_linear_1010_1408)" stroke="url(#paint5_linear_1010_1408)" stroke-width="0.00692638"/>
</g>
<g filter="url(#filter3_i_1010_1408)">
<path d="M-5.22051 369.65L-5.21844 369.647L-5.16911 369.581L-5.12829 369.522C-5.07141 369.439 -4.99014 369.32 -4.89256 369.179C-4.69741 368.895 -4.43703 368.518 -4.17614 368.144C-3.91525 367.769 -3.65386 367.398 -3.45667 367.125C-3.35807 366.989 -3.27555 366.878 -3.21718 366.803C-3.18798 366.766 -3.16488 366.738 -3.14885 366.721C-3.1408 366.712 -3.1347 366.706 -3.1306 366.703L-3.12812 366.702L-3.12737 366.701L-3.12716 366.701C-3.12708 366.701 -3.12713 366.701 -3.12709 366.701C-3.1271 366.701 -3.1276 366.701 -3.12812 366.701C-3.12859 366.7 -3.12861 366.7 -3.12856 366.7L-3.12516 366.7L-3.12175 366.699L-3.12026 366.699L-3.12102 366.7C-2.53678 365.879 -1.92496 365.503 -1.34863 365.385C-0.771943 365.267 -0.230254 365.406 0.213446 365.618L7.38392 370.962L7.38411 370.962L7.41169 370.982L17.4558 378.47C17.4559 378.47 17.456 378.47 17.456 378.47C17.6743 378.688 17.9236 379.018 18.0168 379.436C18.1099 379.855 18.0469 380.363 17.6395 380.937L17.6424 380.939L17.6445 380.941C17.6445 380.941 17.6445 380.942 17.6444 380.942L17.6432 380.943C17.6434 380.943 17.6428 380.943 17.6421 380.942C17.6412 380.942 17.6411 380.941 17.6411 380.941C17.6411 380.941 17.6411 380.941 17.6409 380.942L17.6401 380.945C17.6385 380.95 17.6348 380.957 17.629 380.967C17.6175 380.988 17.5983 381.019 17.5723 381.058C17.5204 381.138 17.4419 381.252 17.3453 381.39C17.1523 381.666 16.8873 382.035 16.6198 382.405C16.3522 382.776 16.0822 383.146 15.879 383.425C15.7775 383.564 15.6926 383.68 15.6331 383.761L15.5641 383.855L15.5459 383.88L15.5412 383.886L15.54 383.888L15.5397 383.888L15.5396 383.888L15.5267 383.879L15.5399 383.893L19.5416 388.11L19.5441 388.108L19.5466 388.106L19.5572 388.096L23.3053 382.825C23.7179 382.247 24.1315 381.678 24.5409 381.114L24.5477 381.105C24.8307 380.715 25.1118 380.329 25.3891 379.943L31.7536 384.684L31.7557 384.682L31.7577 384.679L31.8501 384.555L34.644 380.628L34.7687 380.716L34.6432 380.623L28.347 375.93C29.1595 374.835 29.9329 373.765 30.6795 372.714L36.945 377.386L36.947 377.384L36.9491 377.381L37.0381 377.262L39.8376 373.324L39.9596 373.411L39.8368 373.319L33.4853 368.584C35.7276 365.033 37.2927 361.761 37.594 358.738C37.8955 355.715 36.9321 352.941 34.1177 350.39C31.8523 348.335 29.744 347.509 27.7472 347.6C25.7533 347.691 23.8714 348.696 22.0562 350.303C22.3259 348.707 22.2245 347.171 21.6111 345.768C20.9966 344.362 19.8682 343.089 18.0849 342.024L18.0924 342.011L18.0813 342.024C15.6477 340.565 13.3122 340.59 11.065 341.594C8.81814 342.598 6.65969 344.582 4.57963 347.04L-1.71203 342.351L-1.7141 342.354L-1.71617 342.357L-1.80632 342.478L-4.60456 346.413L-4.72782 346.326L-4.60381 346.418L1.52218 350.983C0.764102 352.049 0.00935598 353.153 -0.740105 354.251L-6.90588 349.654L-6.90795 349.657L-6.91001 349.66L-7.00028 349.781L-7.00032 349.781L-9.79728 353.713L-9.91983 353.626L-9.79653 353.718L-3.50761 358.408C-4.11446 359.297 -4.71181 360.171 -5.30881 361.011L-5.32602 360.999L-4.54107 359.89L-5.33084 361L-9.31614 366.599L-9.44338 366.509L-9.31539 366.604L-5.22257 369.653L-5.22051 369.65ZM-5.22051 369.65L-5.21762 369.652L-5.21765 369.652L-5.22051 369.65ZM24.3434 371.595C24.1281 371.889 23.9357 372.153 23.775 372.379L15.3466 366.095C15.5431 365.819 15.7741 365.478 16.0356 365.092L16.036 365.092C17.2098 363.36 18.9989 360.72 21.0522 358.929C22.0789 358.033 23.1713 357.35 24.2857 357.099C25.3999 356.847 26.5363 357.027 27.6512 357.858C28.7418 358.67 29.231 359.729 29.3139 360.911C29.3967 362.094 29.073 363.4 28.5375 364.709C27.4665 367.325 25.5487 369.947 24.3445 371.594L24.3434 371.595ZM3.83614 357.515C4.00029 357.284 4.19273 356.999 4.41072 356.675L4.41077 356.675L4.4079 356.673L4.41078 356.675L4.41198 356.673C5.38706 355.226 6.87246 353.021 8.62117 351.556C9.4955 350.824 10.4354 350.276 11.41 350.101C12.3845 349.926 13.3939 350.122 14.4076 350.877C15.3986 351.616 15.8671 352.544 15.981 353.563C16.095 354.581 15.8544 355.691 15.4267 356.795C14.5714 359.002 12.9683 361.183 11.9603 362.554L11.9598 362.554C11.7778 362.802 11.6152 363.023 11.48 363.213L3.83614 357.515ZM7.38553 370.96L7.38599 370.959L7.38806 370.956L7.49702 370.81C7.49757 370.809 7.49812 370.809 7.49867 370.808L7.38886 370.961C7.46256 370.858 7.55989 370.729 7.68309 370.593L7.63125 370.666L7.63061 370.667C7.5595 370.767 7.48558 370.87 7.41092 370.977L7.38553 370.96ZM-22.6194 367.864C-37.6512 354.507 -27.5937 329.672 -7.5036 330.539C-1.08012 330.816 5.12693 328.187 9.39759 323.381C22.7545 308.349 47.5895 318.406 46.723 338.496C46.446 344.92 49.0748 351.127 53.881 355.398C68.9127 368.755 58.8553 393.59 38.7652 392.723C32.3417 392.446 26.1346 395.075 21.864 399.881C8.50705 414.913 -16.3279 404.855 -15.4615 384.765C-15.1844 378.342 -17.8132 372.135 -22.6194 367.864Z" fill="url(#paint6_linear_1010_1408)" stroke="url(#paint7_linear_1010_1408)" stroke-width="0.00692638"/>
</g>
<g filter="url(#filter4_i_1010_1408)">
<path d="M531.7 380.683L531.703 380.682L531.785 380.672L531.731 380.681L531.817 380.667C531.89 380.655 531.996 380.637 532.122 380.617C532.375 380.575 532.711 380.521 533.046 380.468C533.381 380.415 533.715 380.364 533.963 380.33C534.087 380.312 534.189 380.299 534.259 380.292C534.294 380.289 534.321 380.287 534.338 380.286C534.347 380.286 534.353 380.286 534.357 380.287C534.359 380.287 534.359 380.288 534.359 380.288C534.359 380.288 534.359 380.288 534.359 380.288C534.359 380.288 534.359 380.287 534.359 380.286C534.359 380.286 534.359 380.286 534.359 380.286C534.359 380.285 534.359 380.285 534.359 380.285L534.362 380.287L534.365 380.289L534.366 380.29L534.365 380.29C535.105 380.182 535.621 380.316 535.981 380.564C536.342 380.813 536.546 381.175 536.661 381.522L537.486 388.12L537.486 388.12L537.489 388.146L538.644 397.39C538.644 397.39 538.644 397.39 538.644 397.39C538.64 397.619 538.591 397.923 538.415 398.188C538.239 398.453 537.934 398.681 537.416 398.758L537.417 398.761L537.417 398.763C537.417 398.764 537.416 398.764 537.415 398.765L537.415 398.764L537.414 398.764C537.414 398.764 537.414 398.763 537.414 398.763C537.414 398.762 537.414 398.761 537.414 398.761L537.414 398.761C537.414 398.761 537.414 398.761 537.414 398.761L537.412 398.762C537.409 398.764 537.403 398.766 537.394 398.768C537.378 398.772 537.351 398.778 537.316 398.784C537.247 398.797 537.145 398.814 537.022 398.833C536.774 398.872 536.44 398.92 536.103 398.967C535.767 399.014 535.429 399.06 535.175 399.094L534.868 399.136L534.782 399.147L534.759 399.15L534.753 399.151L534.752 399.151L534.752 399.151L534.752 399.151L534.749 399.135L534.748 399.154L534.546 403.473L534.55 403.473L534.553 403.473L534.568 403.474L539.321 402.771C539.844 402.695 540.362 402.624 540.875 402.553L540.884 402.552C541.238 402.503 541.59 402.455 541.939 402.406L542.673 408.26L542.676 408.26L542.68 408.26L542.833 408.24L546.339 407.723L546.361 407.874L546.342 407.719L545.617 401.926C546.623 401.797 547.594 401.662 548.542 401.521L549.262 407.287L549.265 407.287L549.268 407.287L549.416 407.268L549.416 407.268L552.931 406.748L552.953 406.896L552.934 406.744L552.204 400.899C555.263 400.274 557.825 399.428 559.601 398.034C561.379 396.638 562.371 394.693 562.291 391.869C562.227 389.595 561.584 388.039 560.507 387.014C559.431 385.991 557.923 385.499 556.128 385.353C557.122 384.676 557.893 383.831 558.33 382.78C558.768 381.726 558.869 380.465 558.523 378.959L558.537 378.956L558.521 378.957C558.05 376.9 556.834 375.66 555.138 374.971C553.442 374.283 551.267 374.147 548.877 374.297L548.153 368.507L548.15 368.508L548.146 368.508L547.996 368.527L544.483 369.046L544.461 368.897L544.48 369.05L545.185 374.687C544.224 374.829 543.243 374.992 542.269 375.155L541.56 369.481L541.557 369.482L541.554 369.482L541.404 369.501L541.404 369.501L537.893 370.02L537.871 369.871L537.89 370.024L538.612 375.812C537.823 375.944 537.048 376.073 536.29 376.186L536.288 376.171L537.619 375.971L536.284 376.168L531.228 376.913L531.205 376.759L531.225 376.917L531.697 380.683L531.7 380.683ZM531.7 380.683L531.701 380.686L531.701 380.686L531.7 380.683ZM545.027 389.751L545.882 397.544M545.882 397.544L545.027 389.751C545.048 389.747 545.07 389.744 545.091 389.74L545.092 389.74C546.625 389.478 548.963 389.078 550.981 389.257C551.99 389.347 552.919 389.581 553.627 390.05C554.336 390.518 554.824 391.22 554.952 392.246C555.078 393.249 554.762 394.056 554.171 394.709C553.579 395.362 552.712 395.861 551.734 396.248C549.779 397.021 547.385 397.342 545.882 397.544ZM544.353 386.245C544.127 386.275 543.925 386.301 543.754 386.326L542.875 379.293C543.083 379.263 543.335 379.219 543.62 379.169L543.621 379.169L543.622 379.169C544.901 378.947 546.848 378.608 548.535 378.792C549.378 378.884 550.155 379.106 550.751 379.539C551.347 379.971 551.761 380.613 551.878 381.546C551.992 382.458 551.735 383.187 551.248 383.772C550.76 384.358 550.041 384.8 549.228 385.139C547.604 385.817 545.609 386.079 544.354 386.245L544.353 386.245ZM537.489 388.12L537.489 388.12L537.493 388.119L537.626 388.103C537.634 388.102 537.642 388.101 537.649 388.1L537.49 388.123C537.579 388.11 537.693 388.097 537.823 388.092L537.773 388.1L537.773 388.103L537.773 388.1L537.772 388.1C537.682 388.113 537.588 388.127 537.492 388.142L537.489 388.12ZM523.7 370.429C523.125 355.487 541.626 348.095 551.506 359.318C554.666 362.907 559.272 364.883 564.05 364.7C578.992 364.125 586.384 382.626 575.161 392.506C571.572 395.666 569.595 400.272 569.779 405.05C570.354 419.992 551.852 427.384 541.973 416.161C538.813 412.572 534.206 410.595 529.429 410.779C514.487 411.354 507.095 392.852 518.318 382.973C521.907 379.813 523.883 375.206 523.7 370.429Z" fill="url(#paint8_linear_1010_1408)" stroke="url(#paint9_linear_1010_1408)" stroke-width="0.00692638"/>
</g>
<g filter="url(#filter5_i_1010_1408)">
<path d="M713.464 11.6056L713.468 11.6051L713.55 11.5949L713.492 11.6045L713.569 11.5918L713.842 11.5469C714.068 11.51 714.369 11.4612 714.669 11.414C714.968 11.3668 715.267 11.321 715.489 11.2902C715.6 11.2748 715.691 11.263 715.754 11.2567C715.785 11.2535 715.809 11.2517 715.825 11.2514C715.833 11.2513 715.838 11.2516 715.841 11.2522C715.843 11.2525 715.843 11.2528 715.843 11.2527C715.843 11.2526 715.843 11.2521 715.843 11.2512C715.843 11.2505 715.843 11.25 715.843 11.25L715.846 11.252L715.848 11.254L715.85 11.2549L715.849 11.2551C716.511 11.1579 716.972 11.2783 717.294 11.5001C717.616 11.7221 717.799 12.0461 717.902 12.3562L718.64 18.2594L718.64 18.2594L718.643 18.2821L719.676 26.552C719.676 26.5521 719.676 26.5522 719.676 26.5523C719.672 26.7572 719.629 27.0284 719.471 27.2656C719.314 27.5028 719.041 27.7064 718.578 27.7755L718.578 27.7789L718.579 27.7807C718.578 27.7811 718.578 27.7815 718.577 27.782L718.577 27.7819L718.576 27.7816C718.576 27.7813 718.576 27.781 718.576 27.7805C718.576 27.7794 718.576 27.7786 718.576 27.7784L718.576 27.7783C718.576 27.7783 718.576 27.7784 718.576 27.7786L718.574 27.7794C718.571 27.7807 718.566 27.7824 718.559 27.7844C718.543 27.7883 718.52 27.7933 718.489 27.7991C718.427 27.8107 718.336 27.8257 718.225 27.8429C718.004 27.8773 717.704 27.9203 717.404 27.9624C717.103 28.0046 716.8 28.0458 716.573 28.0765L716.299 28.1134L716.221 28.1236L716.201 28.1263L716.196 28.127L716.195 28.1272L716.194 28.1273L716.194 28.1273L716.192 28.1114L716.191 28.1305L716.01 31.994L716.014 31.9942L716.017 31.9943L716.032 31.995L720.282 31.3668C720.749 31.2984 721.213 31.2348 721.671 31.1718L721.673 31.1716L721.68 31.1706C721.997 31.127 722.312 31.0838 722.624 31.0395L723.28 36.277L723.284 36.2765L723.287 36.2761L723.441 36.2569L726.56 35.7963L726.583 35.9476L726.563 35.7924L725.915 30.6101C726.814 30.4954 727.683 30.374 728.531 30.248L729.175 35.4065L729.178 35.4061L729.181 35.4056L729.329 35.3872L729.329 35.3872L732.458 34.9244L732.48 35.0725L732.461 34.9205L731.808 29.6917C734.545 29.1323 736.836 28.376 738.425 27.1282C740.016 25.8797 740.903 24.1394 740.831 21.6129C740.774 19.5787 740.199 18.1861 739.235 17.2695C738.273 16.3548 736.925 15.9146 735.319 15.7834C736.208 15.1779 736.897 14.4219 737.288 13.4818C737.68 12.5388 737.771 11.4108 737.461 10.064L737.475 10.0607L737.459 10.0612C737.038 8.22131 735.95 7.11183 734.432 6.49602C732.915 5.88031 730.969 5.75814 728.831 5.89225L728.184 0.713412L728.18 0.713841L728.177 0.714269L728.027 0.732987L724.9 1.19548L724.878 1.04587L724.897 1.19933L725.528 6.24149C724.668 6.36855 723.791 6.51477 722.92 6.66058L722.286 1.58502L722.283 1.58545L722.279 1.58588L722.129 1.60461L719.004 2.06632L718.982 1.91756L719.001 2.07018L719.648 7.24769C718.942 7.36618 718.248 7.48167 717.571 7.58215L717.569 7.56943L718.897 7.37011L717.565 7.56652L713.042 8.23329L713.019 8.07878L713.039 8.23714L713.461 11.606L713.464 11.6056ZM713.464 11.6056L713.465 11.609L713.465 11.609L713.464 11.6056ZM726.15 26.6893C725.91 26.7215 725.695 26.7503 725.513 26.7774L724.646 19.8398C724.869 19.8069 725.139 19.7608 725.444 19.7086L725.445 19.7086C726.817 19.474 728.908 19.1166 730.713 19.277C731.616 19.3572 732.446 19.5668 733.08 19.9857C733.714 20.4044 734.151 21.0324 734.266 21.9499C734.378 22.8472 734.096 23.5692 733.567 24.1535C733.037 24.7378 732.261 25.1843 731.387 25.53C729.638 26.2213 727.496 26.5087 726.151 26.6892L726.15 26.6893ZM724.784 16.5812C724.582 16.6078 724.401 16.6316 724.248 16.6542L723.462 10.3631C723.648 10.3355 723.873 10.2964 724.128 10.2521L724.129 10.252L724.13 10.2517C725.274 10.053 727.016 9.75023 728.525 9.91459C729.279 9.99677 729.974 10.1957 730.507 10.5824C731.04 10.9691 731.411 11.5437 731.515 12.3779C731.617 13.1936 731.388 13.8455 730.951 14.3692C730.515 14.8931 729.872 15.2889 729.145 15.592C727.692 16.1983 725.907 16.4333 724.785 16.5811L724.784 16.5812ZM718.643 18.2591L718.644 18.259L718.647 18.2586L718.766 18.2437C718.775 18.2427 718.785 18.2417 718.794 18.2408L718.644 18.2624C718.723 18.2512 718.822 18.2392 718.935 18.2349L718.897 18.2405L718.896 18.2406L718.896 18.2406C718.816 18.2525 718.732 18.2648 718.646 18.2783L718.643 18.2591ZM706.308 2.43235C705.793 -10.9341 722.345 -17.5473 731.183 -7.50692C734.009 -4.29614 738.131 -2.528 742.405 -2.69241C755.771 -3.20656 762.385 13.3446 752.344 22.1829C749.134 25.0093 747.365 29.1307 747.53 33.4051C748.044 46.7715 731.493 53.3847 722.654 43.3443C719.828 40.1336 715.707 38.3654 711.432 38.5298C698.066 39.044 691.453 22.4929 701.493 13.6545C704.704 10.8281 706.472 6.70674 706.308 2.43235Z" fill="url(#paint10_linear_1010_1408)" stroke="url(#paint11_linear_1010_1408)" stroke-width="0.00692638"/>
</g>
<g filter="url(#filter6_i_1010_1408)">
<path d="M1015.46 125.606L1015.47 125.605L1015.55 125.595L1015.49 125.604L1015.57 125.592L1015.84 125.547C1016.07 125.51 1016.37 125.461 1016.67 125.414C1016.97 125.367 1017.27 125.321 1017.49 125.29C1017.6 125.275 1017.69 125.263 1017.75 125.257C1017.79 125.254 1017.81 125.252 1017.82 125.251C1017.83 125.251 1017.84 125.252 1017.84 125.252C1017.84 125.252 1017.84 125.253 1017.84 125.253C1017.84 125.253 1017.84 125.252 1017.84 125.251C1017.84 125.25 1017.84 125.25 1017.84 125.25L1017.85 125.252L1017.85 125.254L1017.85 125.255L1017.85 125.255C1018.51 125.158 1018.97 125.278 1019.29 125.5C1019.62 125.722 1019.8 126.046 1019.9 126.356L1020.64 132.259L1020.64 132.259L1020.64 132.282L1021.68 140.552C1021.68 140.552 1021.68 140.552 1021.68 140.552C1021.67 140.757 1021.63 141.028 1021.47 141.266C1021.31 141.503 1021.04 141.706 1020.58 141.776L1020.58 141.779L1020.58 141.781C1020.58 141.781 1020.58 141.782 1020.58 141.782L1020.58 141.782L1020.58 141.782C1020.58 141.781 1020.58 141.781 1020.58 141.78C1020.58 141.779 1020.58 141.779 1020.58 141.778L1020.58 141.778C1020.58 141.778 1020.58 141.778 1020.58 141.779L1020.57 141.779C1020.57 141.781 1020.57 141.782 1020.56 141.784C1020.54 141.788 1020.52 141.793 1020.49 141.799C1020.43 141.811 1020.34 141.826 1020.23 141.843C1020 141.877 1019.7 141.92 1019.4 141.962C1019.1 142.005 1018.8 142.046 1018.57 142.076L1018.3 142.113L1018.22 142.124L1018.2 142.126L1018.2 142.127L1018.19 142.127L1018.19 142.127L1018.19 142.127L1018.19 142.111L1018.19 142.131L1018.01 145.994L1018.01 145.994L1018.02 145.994L1018.03 145.995L1022.28 145.367C1022.75 145.298 1023.21 145.235 1023.67 145.172L1023.67 145.172L1023.68 145.171C1024 145.127 1024.31 145.084 1024.62 145.04L1025.28 150.277L1025.28 150.277L1025.29 150.276L1025.44 150.257L1028.56 149.796L1028.58 149.948L1028.56 149.792L1027.92 144.61C1028.81 144.495 1029.68 144.374 1030.53 144.248L1031.17 149.406L1031.18 149.406L1031.18 149.406L1031.33 149.387L1031.33 149.387L1034.46 148.924L1034.48 149.072L1034.46 148.921L1033.81 143.692C1036.54 143.132 1038.84 142.376 1040.43 141.128C1042.02 139.88 1042.9 138.139 1042.83 135.613C1042.77 133.579 1042.2 132.186 1041.24 131.269C1040.27 130.355 1038.92 129.915 1037.32 129.783C1038.21 129.178 1038.9 128.422 1039.29 127.482C1039.68 126.539 1039.77 125.411 1039.46 124.064L1039.47 124.061L1039.46 124.061C1039.04 122.221 1037.95 121.112 1036.43 120.496C1034.92 119.88 1032.97 119.758 1030.83 119.892L1030.18 114.713L1030.18 114.714L1030.18 114.714L1030.03 114.733L1026.9 115.195L1026.88 115.046L1026.9 115.199L1027.53 120.241C1026.67 120.369 1025.79 120.515 1024.92 120.661L1024.29 115.585L1024.28 115.585L1024.28 115.586L1024.13 115.605L1021 116.066L1020.98 115.918L1021 116.07L1021.65 121.248C1020.94 121.366 1020.25 121.482 1019.57 121.582L1019.57 121.569L1020.9 121.37L1019.56 121.567L1015.04 122.233L1015.02 122.079L1015.04 122.237L1015.46 125.606L1015.46 125.606ZM1015.46 125.606L1015.46 125.609L1015.46 125.609L1015.46 125.606ZM1028.15 140.689C1027.91 140.722 1027.7 140.75 1027.51 140.777L1026.65 133.84C1026.87 133.807 1027.14 133.761 1027.44 133.709L1027.44 133.709C1028.82 133.474 1030.91 133.117 1032.71 133.277C1033.62 133.357 1034.45 133.567 1035.08 133.986C1035.71 134.404 1036.15 135.032 1036.27 135.95C1036.38 136.847 1036.1 137.569 1035.57 138.153C1035.04 138.738 1034.26 139.184 1033.39 139.53C1031.64 140.221 1029.5 140.509 1028.15 140.689L1028.15 140.689ZM1026.78 130.581C1026.58 130.608 1026.4 130.632 1026.25 130.654L1025.46 124.363C1025.65 124.336 1025.87 124.296 1026.13 124.252L1026.13 124.252L1026.13 124.252C1027.27 124.053 1029.02 123.75 1030.52 123.915C1031.28 123.997 1031.97 124.196 1032.51 124.582C1033.04 124.969 1033.41 125.544 1033.52 126.378C1033.62 127.194 1033.39 127.846 1032.95 128.369C1032.52 128.893 1031.87 129.289 1031.15 129.592C1029.69 130.198 1027.91 130.433 1026.78 130.581L1026.78 130.581ZM1020.64 132.259L1020.64 132.259L1020.65 132.259L1020.77 132.244C1020.78 132.243 1020.78 132.242 1020.79 132.241L1020.64 132.262C1020.72 132.251 1020.82 132.239 1020.94 132.235L1020.9 132.241L1020.9 132.241L1020.9 132.241C1020.82 132.252 1020.73 132.265 1020.65 132.278L1020.64 132.259ZM1008.31 116.432C1007.79 103.066 1024.34 96.4527 1033.18 106.493C1036.01 109.704 1040.13 111.472 1044.41 111.308C1057.77 110.793 1064.38 127.345 1054.34 136.183C1051.13 139.009 1049.37 143.131 1049.53 147.405C1050.04 160.771 1033.49 167.385 1024.65 157.344C1021.83 154.134 1017.71 152.365 1013.43 152.53C1000.07 153.044 993.453 136.493 1003.49 127.655C1006.7 124.828 1008.47 120.707 1008.31 116.432Z" fill="url(#paint12_linear_1010_1408)" stroke="url(#paint13_linear_1010_1408)" stroke-width="0.00692638"/>
</g>
<g filter="url(#filter7_i_1010_1408)">
<path d="M478.464 172.606L478.468 172.605L478.55 172.595L478.492 172.604L478.569 172.592L478.842 172.547C479.068 172.51 479.369 172.461 479.669 172.414C479.968 172.367 480.267 172.321 480.489 172.29C480.6 172.275 480.691 172.263 480.754 172.257C480.785 172.254 480.809 172.252 480.825 172.251C480.833 172.251 480.838 172.252 480.841 172.252C480.843 172.252 480.843 172.253 480.843 172.253C480.843 172.253 480.843 172.252 480.843 172.251C480.843 172.25 480.843 172.25 480.843 172.25L480.846 172.252L480.848 172.254L480.85 172.255L480.849 172.255C481.511 172.158 481.972 172.278 482.294 172.5C482.616 172.722 482.799 173.046 482.902 173.356L483.64 179.259L483.64 179.259L483.643 179.282L484.676 187.552C484.676 187.552 484.676 187.552 484.676 187.552C484.672 187.757 484.629 188.028 484.471 188.266C484.314 188.503 484.041 188.706 483.578 188.776L483.578 188.779L483.579 188.781C483.578 188.781 483.578 188.782 483.577 188.782L483.577 188.782L483.576 188.782C483.576 188.781 483.576 188.781 483.576 188.78C483.576 188.779 483.576 188.779 483.576 188.778L483.576 188.778C483.576 188.778 483.576 188.778 483.576 188.779L483.574 188.779C483.571 188.781 483.566 188.782 483.559 188.784C483.543 188.788 483.52 188.793 483.489 188.799C483.427 188.811 483.336 188.826 483.225 188.843C483.004 188.877 482.704 188.92 482.404 188.962C482.103 189.005 481.8 189.046 481.573 189.076L481.299 189.113L481.221 189.124L481.201 189.126L481.196 189.127L481.195 189.127L481.194 189.127L481.194 189.127L481.192 189.111L481.191 189.131L481.01 192.994L481.014 192.994L481.017 192.994L481.032 192.995L485.282 192.367C485.749 192.298 486.213 192.235 486.671 192.172L486.673 192.172L486.68 192.171C486.997 192.127 487.312 192.084 487.624 192.04L488.28 197.277L488.284 197.277L488.287 197.276L488.441 197.257L491.56 196.796L491.583 196.948L491.563 196.792L490.915 191.61C491.814 191.495 492.683 191.374 493.531 191.248L494.175 196.406L494.178 196.406L494.181 196.406L494.329 196.387L494.329 196.387L497.458 195.924L497.48 196.072L497.461 195.921L496.808 190.692C499.545 190.132 501.836 189.376 503.425 188.128C505.016 186.88 505.903 185.139 505.831 182.613C505.774 180.579 505.199 179.186 504.235 178.269C503.273 177.355 501.925 176.915 500.319 176.783C501.208 176.178 501.897 175.422 502.288 174.482C502.68 173.539 502.771 172.411 502.461 171.064L502.475 171.061L502.459 171.061C502.038 169.221 500.95 168.112 499.432 167.496C497.915 166.88 495.969 166.758 493.831 166.892L493.184 161.713L493.18 161.714L493.177 161.714L493.027 161.733L489.9 162.195L489.878 162.046L489.897 162.199L490.528 167.241C489.668 167.369 488.791 167.515 487.92 167.661L487.286 162.585L487.283 162.585L487.279 162.586L487.129 162.605L484.004 163.066L483.982 162.918L484.001 163.07L484.648 168.248C483.942 168.366 483.248 168.482 482.571 168.582L482.569 168.569L483.897 168.37L482.565 168.567L478.042 169.233L478.019 169.079L478.039 169.237L478.461 172.606L478.464 172.606ZM478.464 172.606L478.465 172.609L478.465 172.609L478.464 172.606ZM491.15 187.689C490.91 187.722 490.695 187.75 490.513 187.777L489.646 180.84C489.869 180.807 490.139 180.761 490.444 180.709L490.445 180.709C491.817 180.474 493.908 180.117 495.713 180.277C496.616 180.357 497.446 180.567 498.08 180.986C498.714 181.404 499.151 182.032 499.266 182.95C499.378 183.847 499.096 184.569 498.567 185.153C498.037 185.738 497.261 186.184 496.387 186.53C494.638 187.221 492.496 187.509 491.151 187.689L491.15 187.689ZM489.784 177.581C489.582 177.608 489.401 177.632 489.248 177.654L488.462 171.363C488.648 171.336 488.873 171.296 489.128 171.252L489.129 171.252L489.13 171.252C490.274 171.053 492.016 170.75 493.525 170.915C494.279 170.997 494.974 171.196 495.507 171.582C496.04 171.969 496.411 172.544 496.515 173.378C496.617 174.194 496.388 174.846 495.951 175.369C495.515 175.893 494.872 176.289 494.145 176.592C492.692 177.198 490.907 177.433 489.785 177.581L489.784 177.581ZM483.643 179.259L483.644 179.259L483.647 179.259L483.766 179.244C483.775 179.243 483.785 179.242 483.794 179.241L483.644 179.262C483.723 179.251 483.822 179.239 483.935 179.235L483.897 179.241L483.896 179.241L483.896 179.241C483.816 179.252 483.732 179.265 483.646 179.278L483.643 179.259ZM471.308 163.432C470.793 150.066 487.345 143.453 496.183 153.493C499.009 156.704 503.131 158.472 507.405 158.308C520.771 157.793 527.385 174.345 517.344 183.183C514.134 186.009 512.365 190.131 512.53 194.405C513.044 207.771 496.493 214.385 487.654 204.344C484.828 201.134 480.707 199.365 476.432 199.53C463.066 200.044 456.453 183.493 466.493 174.655C469.704 171.828 471.472 167.707 471.308 163.432Z" fill="url(#paint14_linear_1010_1408)" stroke="url(#paint15_linear_1010_1408)" stroke-width="0.00692638"/>
</g>
</g>
<defs>
<filter id="filter0_i_1010_1408" x="-0.636047" y="7.36395" width="93.2846" height="95.2166" filterUnits="userSpaceOnUse" color-interpolation-filters="sRGB">
<feFlood flood-opacity="0" result="BackgroundImageFix"/>
<feBlend mode="normal" in="SourceGraphic" in2="BackgroundImageFix" result="shape"/>
<feColorMatrix in="SourceAlpha" type="matrix" values="0 0 0 0 0 0 0 0 0 0 0 0 0 0 0 0 0 0 127 0" result="hardAlpha"/>
<feOffset dy="1.93196"/>
<feGaussianBlur stdDeviation="0.965978"/>
<feComposite in2="hardAlpha" operator="arithmetic" k2="-1" k3="1"/>
<feColorMatrix type="matrix" values="0 0 0 0 0.454557 0 0 0 0 0.454557 0 0 0 0 0.454557 0 0 0 0.25 0"/>
<feBlend mode="normal" in2="shape" result="effect1_innerShadow_1010_1408"/>
</filter>
<filter id="filter1_i_1010_1408" x="1421.36" y="-12.636" width="93.2845" height="95.2166" filterUnits="userSpaceOnUse" color-interpolation-filters="sRGB">
<feFlood flood-opacity="0" result="BackgroundImageFix"/>
<feBlend mode="normal" in="SourceGraphic" in2="BackgroundImageFix" result="shape"/>
<feColorMatrix in="SourceAlpha" type="matrix" values="0 0 0 0 0 0 0 0 0 0 0 0 0 0 0 0 0 0 127 0" result="hardAlpha"/>
<feOffset dy="1.93196"/>
<feGaussianBlur stdDeviation="0.965978"/>
<feComposite in2="hardAlpha" operator="arithmetic" k2="-1" k3="1"/>
<feColorMatrix type="matrix" values="0 0 0 0 0.454557 0 0 0 0 0.454557 0 0 0 0 0.454557 0 0 0 0.25 0"/>
<feBlend mode="normal" in2="shape" result="effect1_innerShadow_1010_1408"/>
</filter>
<filter id="filter2_i_1010_1408" x="1361.15" y="351.151" width="90.9601" height="92.8919" filterUnits="userSpaceOnUse" color-interpolation-filters="sRGB">
<feFlood flood-opacity="0" result="BackgroundImageFix"/>
<feBlend mode="normal" in="SourceGraphic" in2="BackgroundImageFix" result="shape"/>
<feColorMatrix in="SourceAlpha" type="matrix" values="0 0 0 0 0 0 0 0 0 0 0 0 0 0 0 0 0 0 127 0" result="hardAlpha"/>
<feOffset dy="1.93196"/>
<feGaussianBlur stdDeviation="0.965978"/>
<feComposite in2="hardAlpha" operator="arithmetic" k2="-1" k3="1"/>
<feColorMatrix type="matrix" values="0 0 0 0 0.454557 0 0 0 0 0.454557 0 0 0 0 0.454557 0 0 0 0.25 0"/>
<feBlend mode="normal" in2="shape" result="effect1_innerShadow_1010_1408"/>
</filter>
<filter id="filter3_i_1010_1408" x="-29.8492" y="316.151" width="90.96" height="92.8919" filterUnits="userSpaceOnUse" color-interpolation-filters="sRGB">
<feFlood flood-opacity="0" result="BackgroundImageFix"/>
<feBlend mode="normal" in="SourceGraphic" in2="BackgroundImageFix" result="shape"/>
<feColorMatrix in="SourceAlpha" type="matrix" values="0 0 0 0 0 0 0 0 0 0 0 0 0 0 0 0 0 0 127 0" result="hardAlpha"/>
<feOffset dy="1.93196"/>
<feGaussianBlur stdDeviation="0.965978"/>
<feComposite in2="hardAlpha" operator="arithmetic" k2="-1" k3="1"/>
<feColorMatrix type="matrix" values="0 0 0 0 0.454557 0 0 0 0 0.454557 0 0 0 0 0.454557 0 0 0 0.25 0"/>
<feBlend mode="normal" in2="shape" result="effect1_innerShadow_1010_1408"/>
</filter>
<filter id="filter4_i_1010_1408" x="512.886" y="353.886" width="67.7059" height="69.6379" filterUnits="userSpaceOnUse" color-interpolation-filters="sRGB">
<feFlood flood-opacity="0" result="BackgroundImageFix"/>
<feBlend mode="normal" in="SourceGraphic" in2="BackgroundImageFix" result="shape"/>
<feColorMatrix in="SourceAlpha" type="matrix" values="0 0 0 0 0 0 0 0 0 0 0 0 0 0 0 0 0 0 127 0" result="hardAlpha"/>
<feOffset dy="1.93196"/>
<feGaussianBlur stdDeviation="0.965978"/>
<feComposite in2="hardAlpha" operator="arithmetic" k2="-1" k3="1"/>
<feColorMatrix type="matrix" values="0 0 0 0 0.454557 0 0 0 0 0.454557 0 0 0 0 0.454557 0 0 0 0.25 0"/>
<feBlend mode="normal" in2="shape" result="effect1_innerShadow_1010_1408"/>
</filter>
<filter id="filter5_i_1010_1408" x="696.634" y="-12.3663" width="60.5701" height="62.502" filterUnits="userSpaceOnUse" color-interpolation-filters="sRGB">
<feFlood flood-opacity="0" result="BackgroundImageFix"/>
<feBlend mode="normal" in="SourceGraphic" in2="BackgroundImageFix" result="shape"/>
<feColorMatrix in="SourceAlpha" type="matrix" values="0 0 0 0 0 0 0 0 0 0 0 0 0 0 0 0 0 0 127 0" result="hardAlpha"/>
<feOffset dy="1.93196"/>
<feGaussianBlur stdDeviation="0.965978"/>
<feComposite in2="hardAlpha" operator="arithmetic" k2="-1" k3="1"/>
<feColorMatrix type="matrix" values="0 0 0 0 0.454557 0 0 0 0 0.454557 0 0 0 0 0.454557 0 0 0 0.25 0"/>
<feBlend mode="normal" in2="shape" result="effect1_innerShadow_1010_1408"/>
</filter>
<filter id="filter6_i_1010_1408" x="998.634" y="101.634" width="60.5701" height="62.502" filterUnits="userSpaceOnUse" color-interpolation-filters="sRGB">
<feFlood flood-opacity="0" result="BackgroundImageFix"/>
<feBlend mode="normal" in="SourceGraphic" in2="BackgroundImageFix" result="shape"/>
<feColorMatrix in="SourceAlpha" type="matrix" values="0 0 0 0 0 0 0 0 0 0 0 0 0 0 0 0 0 0 127 0" result="hardAlpha"/>
<feOffset dy="1.93196"/>
<feGaussianBlur stdDeviation="0.965978"/>
<feComposite in2="hardAlpha" operator="arithmetic" k2="-1" k3="1"/>
<feColorMatrix type="matrix" values="0 0 0 0 0.454557 0 0 0 0 0.454557 0 0 0 0 0.454557 0 0 0 0.25 0"/>
<feBlend mode="normal" in2="shape" result="effect1_innerShadow_1010_1408"/>
</filter>
<filter id="filter7_i_1010_1408" x="461.634" y="148.634" width="60.5701" height="62.502" filterUnits="userSpaceOnUse" color-interpolation-filters="sRGB">
<feFlood flood-opacity="0" result="BackgroundImageFix"/>
<feBlend mode="normal" in="SourceGraphic" in2="BackgroundImageFix" result="shape"/>
<feColorMatrix in="SourceAlpha" type="matrix" values="0 0 0 0 0 0 0 0 0 0 0 0 0 0 0 0 0 0 127 0" result="hardAlpha"/>
<feOffset dy="1.93196"/>
<feGaussianBlur stdDeviation="0.965978"/>
<feComposite in2="hardAlpha" operator="arithmetic" k2="-1" k3="1"/>
<feColorMatrix type="matrix" values="0 0 0 0 0.454557 0 0 0 0 0.454557 0 0 0 0 0.454557 0 0 0 0.25 0"/>
<feBlend mode="normal" in2="shape" result="effect1_innerShadow_1010_1408"/>
</filter>
<linearGradient id="paint0_linear_1010_1408" x1="45.3159" y1="5.19053" x2="35.0383" y2="100.045" gradientUnits="userSpaceOnUse">
<stop stop-color="#2E2E2E"/>
<stop offset="1" stop-color="#0D0D0D"/>
</linearGradient>
<linearGradient id="paint1_linear_1010_1408" x1="56.9742" y1="7.96794" x2="35.0383" y2="100.045" gradientUnits="userSpaceOnUse">
<stop stop-color="#494949"/>
<stop offset="1" stop-color="#2A2A2A"/>
</linearGradient>
<linearGradient id="paint2_linear_1010_1408" x1="1467.32" y1="-14.8095" x2="1457.04" y2="80.0446" gradientUnits="userSpaceOnUse">
<stop stop-color="#2E2E2E"/>
<stop offset="1" stop-color="#0D0D0D"/>
</linearGradient>
<linearGradient id="paint3_linear_1010_1408" x1="1478.97" y1="-12.0321" x2="1457.04" y2="80.0446" gradientUnits="userSpaceOnUse">
<stop stop-color="#494949"/>
<stop offset="1" stop-color="#2A2A2A"/>
</linearGradient>
<linearGradient id="paint4_linear_1010_1408" x1="1358.27" y1="389.974" x2="1450.5" y2="414.395" gradientUnits="userSpaceOnUse">
<stop stop-color="#2E2E2E"/>
<stop offset="1" stop-color="#0D0D0D"/>
</linearGradient>
<linearGradient id="paint5_linear_1010_1408" x1="1362.76" y1="378.866" x2="1450.5" y2="414.395" gradientUnits="userSpaceOnUse">
<stop stop-color="#494949"/>
<stop offset="1" stop-color="#2A2A2A"/>
</linearGradient>
<linearGradient id="paint6_linear_1010_1408" x1="-32.7339" y1="354.974" x2="59.497" y2="379.395" gradientUnits="userSpaceOnUse">
<stop stop-color="#2E2E2E"/>
<stop offset="1" stop-color="#0D0D0D"/>
</linearGradient>
<linearGradient id="paint7_linear_1010_1408" x1="-28.2354" y1="343.866" x2="59.497" y2="379.395" gradientUnits="userSpaceOnUse">
<stop stop-color="#494949"/>
<stop offset="1" stop-color="#2A2A2A"/>
</linearGradient>
<linearGradient id="paint8_linear_1010_1408" x1="525.405" y1="358.365" x2="559.798" y2="420.421" gradientUnits="userSpaceOnUse">
<stop stop-color="#2E2E2E"/>
<stop offset="1" stop-color="#0D0D0D"/>
</linearGradient>
<linearGradient id="paint9_linear_1010_1408" x1="533.681" y1="355.058" x2="559.798" y2="420.421" gradientUnits="userSpaceOnUse">
<stop stop-color="#494949"/>
<stop offset="1" stop-color="#2A2A2A"/>
</linearGradient>
<linearGradient id="paint10_linear_1010_1408" x1="707.833" y1="-8.35982" x2="738.601" y2="47.1555" gradientUnits="userSpaceOnUse">
<stop stop-color="#2E2E2E"/>
<stop offset="1" stop-color="#0D0D0D"/>
</linearGradient>
<linearGradient id="paint11_linear_1010_1408" x1="715.237" y1="-11.318" x2="738.601" y2="47.1555" gradientUnits="userSpaceOnUse">
<stop stop-color="#494949"/>
<stop offset="1" stop-color="#2A2A2A"/>
</linearGradient>
<linearGradient id="paint12_linear_1010_1408" x1="1009.83" y1="105.64" x2="1040.6" y2="161.155" gradientUnits="userSpaceOnUse">
<stop stop-color="#2E2E2E"/>
<stop offset="1" stop-color="#0D0D0D"/>
</linearGradient>
<linearGradient id="paint13_linear_1010_1408" x1="1017.24" y1="102.682" x2="1040.6" y2="161.155" gradientUnits="userSpaceOnUse">
<stop stop-color="#494949"/>
<stop offset="1" stop-color="#2A2A2A"/>
</linearGradient>
<linearGradient id="paint14_linear_1010_1408" x1="472.833" y1="152.64" x2="503.601" y2="208.155" gradientUnits="userSpaceOnUse">
<stop stop-color="#2E2E2E"/>
<stop offset="1" stop-color="#0D0D0D"/>
</linearGradient>
<linearGradient id="paint15_linear_1010_1408" x1="480.237" y1="149.682" x2="503.601" y2="208.155" gradientUnits="userSpaceOnUse">
<stop stop-color="#494949"/>
<stop offset="1" stop-color="#2A2A2A"/>
</linearGradient>
<clipPath id="clip0_1010_1408">
<rect width="1513" height="387" fill="white"/>
</clipPath>
</defs>
</svg>
