<svg width="122" height="86" viewBox="0 0 122 86" fill="none" xmlns="http://www.w3.org/2000/svg">
<g filter="url(#filter0_i_1009_1390)">
<path d="M0 10.28C0 6.7497 0 4.98455 0.71962 3.65086C1.27551 2.62063 2.12063 1.77551 3.15086 1.21962C4.48455 0.5 6.2497 0.5 9.78 0.5H95.92C105.334 0.5 110.041 0.5 113.598 2.41899C116.345 3.90135 118.599 6.155 120.081 8.9023C122 12.4588 122 17.1659 122 26.58V59.42C122 68.8341 122 73.5412 120.081 77.0977C118.599 79.845 116.345 82.0986 113.598 83.581C110.041 85.5 105.334 85.5 95.92 85.5H9.77999C6.2497 85.5 4.48455 85.5 3.15086 84.7804C2.12063 84.2245 1.27551 83.3794 0.71962 82.3491C0 81.0154 0 79.2503 0 75.72V10.28Z" fill="#141414"/>
</g>
<g filter="url(#filter1_i_1009_1390)">
<path d="M77 39.28C77 35.7497 77 33.9846 77.7196 32.6509C78.2755 31.6206 79.1206 30.7755 80.1509 30.2196C81.4846 29.5 83.2497 29.5 86.78 29.5H122V57.5H86.78C83.2497 57.5 81.4846 57.5 80.1509 56.7804C79.1206 56.2245 78.2755 55.3794 77.7196 54.3491C77 53.0154 77 51.2503 77 47.72V39.28Z" fill="#2B2B2B"/>
</g>
<g filter="url(#filter2_i_1009_1390)">
<circle cx="94" cy="43.5" r="6" fill="#2B2B2B"/>
</g>
<defs>
<filter id="filter0_i_1009_1390" x="0" y="0.5" width="122" height="89" filterUnits="userSpaceOnUse" color-interpolation-filters="sRGB">
<feFlood flood-opacity="0" result="BackgroundImageFix"/>
<feBlend mode="normal" in="SourceGraphic" in2="BackgroundImageFix" result="shape"/>
<feColorMatrix in="SourceAlpha" type="matrix" values="0 0 0 0 0 0 0 0 0 0 0 0 0 0 0 0 0 0 127 0" result="hardAlpha"/>
<feMorphology radius="5" operator="dilate" in="SourceAlpha" result="effect1_innerShadow_1009_1390"/>
<feOffset dy="8"/>
<feGaussianBlur stdDeviation="4.5"/>
<feComposite in2="hardAlpha" operator="arithmetic" k2="-1" k3="1"/>
<feColorMatrix type="matrix" values="0 0 0 0 0.436039 0 0 0 0 0.436039 0 0 0 0 0.436039 0 0 0 1 0"/>
<feBlend mode="normal" in2="shape" result="effect1_innerShadow_1009_1390"/>
</filter>
<filter id="filter1_i_1009_1390" x="77" y="29.5" width="45" height="32" filterUnits="userSpaceOnUse" color-interpolation-filters="sRGB">
<feFlood flood-opacity="0" result="BackgroundImageFix"/>
<feBlend mode="normal" in="SourceGraphic" in2="BackgroundImageFix" result="shape"/>
<feColorMatrix in="SourceAlpha" type="matrix" values="0 0 0 0 0 0 0 0 0 0 0 0 0 0 0 0 0 0 127 0" result="hardAlpha"/>
<feMorphology radius="5" operator="dilate" in="SourceAlpha" result="effect1_innerShadow_1009_1390"/>
<feOffset dy="8"/>
<feGaussianBlur stdDeviation="4.5"/>
<feComposite in2="hardAlpha" operator="arithmetic" k2="-1" k3="1"/>
<feColorMatrix type="matrix" values="0 0 0 0 0.436039 0 0 0 0 0.436039 0 0 0 0 0.436039 0 0 0 1 0"/>
<feBlend mode="normal" in2="shape" result="effect1_innerShadow_1009_1390"/>
</filter>
<filter id="filter2_i_1009_1390" x="88" y="37.5" width="12" height="16" filterUnits="userSpaceOnUse" color-interpolation-filters="sRGB">
<feFlood flood-opacity="0" result="BackgroundImageFix"/>
<feBlend mode="normal" in="SourceGraphic" in2="BackgroundImageFix" result="shape"/>
<feColorMatrix in="SourceAlpha" type="matrix" values="0 0 0 0 0 0 0 0 0 0 0 0 0 0 0 0 0 0 127 0" result="hardAlpha"/>
<feMorphology radius="5" operator="dilate" in="SourceAlpha" result="effect1_innerShadow_1009_1390"/>
<feOffset dy="8"/>
<feGaussianBlur stdDeviation="4.5"/>
<feComposite in2="hardAlpha" operator="arithmetic" k2="-1" k3="1"/>
<feColorMatrix type="matrix" values="0 0 0 0 0.436039 0 0 0 0 0.436039 0 0 0 0 0.436039 0 0 0 1 0"/>
<feBlend mode="normal" in2="shape" result="effect1_innerShadow_1009_1390"/>
</filter>
</defs>
</svg>
