<svg width="424" height="470" viewBox="0 0 424 470" fill="none" xmlns="http://www.w3.org/2000/svg">
<g filter="url(#filter0_d_591_250)">
<rect width="396" height="511" rx="40" fill="#A6A6A6" shape-rendering="crispEdges"/>
<rect x="24" y="26" width="348" height="350" rx="32" fill="#1C1C1C"/>
<path fill-rule="evenodd" clip-rule="evenodd" d="M83.7186 252.432L143.804 134.657C144.258 133.766 144.763 132.913 145.313 132.101C145.971 130.545 146.689 129.002 147.468 127.475C165.071 92.9708 207.312 79.2699 241.815 96.8727C276.319 114.476 290.02 156.716 272.417 191.22C272.144 191.756 271.865 192.286 271.58 192.812C271.454 193.091 271.321 193.369 271.181 193.644L216.027 301.752C213.619 306.471 207.842 308.345 203.123 305.937C198.404 303.53 196.53 297.752 198.938 293.033L233.424 225.435C228.15 227.308 222.655 228.552 217.064 229.128L173.447 314.623C171.198 319.032 165.799 320.783 161.389 318.534C156.98 316.284 155.229 310.886 157.478 306.476L197.332 228.358C192.971 227.559 188.637 226.335 184.386 224.666L157.572 277.225C155.086 282.099 149.119 284.034 144.245 281.548C139.372 279.061 137.436 273.094 139.923 268.221L167.121 214.908C163.707 212.283 160.584 209.379 157.77 206.247L142.357 236.458C140.068 240.945 134.575 242.726 130.088 240.437C125.601 238.148 123.819 232.655 126.108 228.168L143.509 194.06C144.733 191.662 143.78 188.726 141.382 187.503C138.984 186.279 136.048 187.231 134.824 189.63L98.847 260.15C96.7157 264.327 91.6013 265.986 87.4238 263.855C83.2462 261.723 81.5873 256.609 83.7186 252.432ZM100.868 277.137C98.5154 281.748 100.346 287.393 104.957 289.745C109.569 292.098 115.214 290.267 117.566 285.656L123.441 274.139C125.794 269.528 123.963 263.883 119.352 261.531C114.741 259.178 109.095 261.009 106.743 265.621L100.868 277.137Z" fill="#575757"/>
<path d="M228.227 147.1H230.235V167.177H228.227V173.201C228.227 174.31 227.328 175.208 226.219 175.208H190.08C188.971 175.208 188.072 174.31 188.072 173.201V141.077C188.072 139.968 188.971 139.069 190.08 139.069H226.219C227.328 139.069 228.227 139.968 228.227 141.077V147.1ZM224.211 167.177H212.165C206.621 167.177 202.126 162.683 202.126 157.139C202.126 151.594 206.621 147.1 212.165 147.1H224.211V143.084H192.087V171.193H224.211V167.177ZM226.219 163.162V151.115H212.165C208.838 151.115 206.142 153.812 206.142 157.139C206.142 160.465 208.838 163.162 212.165 163.162H226.219ZM212.165 155.131H218.188V159.146H212.165V155.131Z" fill="#1C1C1C"/>
<circle cx="209" cy="158" r="40.8721" stroke="#1C1C1C" stroke-width="7.74418"/>
</g>
<defs>
<filter id="filter0_d_591_250" x="0" y="0" width="424" height="531" filterUnits="userSpaceOnUse" color-interpolation-filters="sRGB">
<feFlood flood-opacity="0" result="BackgroundImageFix"/>
<feColorMatrix in="SourceAlpha" type="matrix" values="0 0 0 0 0 0 0 0 0 0 0 0 0 0 0 0 0 0 127 0" result="hardAlpha"/>
<feOffset dx="24" dy="16"/>
<feGaussianBlur stdDeviation="2"/>
<feComposite in2="hardAlpha" operator="out"/>
<feColorMatrix type="matrix" values="0 0 0 0 0.218461 0 0 0 0 0.218461 0 0 0 0 0.218461 0 0 0 1 0"/>
<feBlend mode="normal" in2="BackgroundImageFix" result="effect1_dropShadow_591_250"/>
<feBlend mode="normal" in="SourceGraphic" in2="effect1_dropShadow_591_250" result="shape"/>
</filter>
</defs>
</svg>
