<svg width="122" height="162" viewBox="0 0 122 162" fill="none" xmlns="http://www.w3.org/2000/svg">
<g filter="url(#filter0_i_1009_1346)">
<path fill-rule="evenodd" clip-rule="evenodd" d="M53.652 -3.05176e-05C50.3383 -3.05176e-05 47.652 2.68626 47.652 5.99997V32.1901H38.1942C35.8237 32.1901 34.3896 34.8099 35.6671 36.8068L53.7529 65.0761C54.9329 66.9205 57.6271 66.9205 58.8071 65.0761L76.8928 36.8068C78.1703 34.8099 76.7363 32.19 74.3657 32.19H64.9086V5.99997C64.9086 2.68626 62.2223 -3.05176e-05 58.9086 -3.05176e-05H53.652Z" fill="#1D1D1D"/>
</g>
<g filter="url(#filter1_i_1009_1346)">
<path d="M0.00012207 86.78C0.00012207 83.2497 0.00012207 81.4846 0.719742 80.1509C1.27563 79.1206 2.12075 78.2755 3.15098 77.7196C4.48467 77 6.24982 77 9.78012 77H95.9201C105.334 77 110.041 77 113.598 78.919C116.345 80.4013 118.599 82.655 120.081 85.4023C122 88.9588 122 93.6659 122 103.08V135.92C122 145.334 122 150.041 120.081 153.598C118.599 156.345 116.345 158.599 113.598 160.081C110.041 162 105.334 162 95.9201 162H9.78012C6.24982 162 4.48467 162 3.15098 161.28C2.12075 160.724 1.27563 159.879 0.719742 158.849C0.00012207 157.515 0.00012207 155.75 0.00012207 152.22V86.78Z" fill="#1D1D1D"/>
</g>
<g filter="url(#filter2_i_1009_1346)">
<path d="M77.0001 120C77.0001 112.268 83.2681 106 91.0001 106H122V134H91.0001C83.2681 134 77.0001 127.732 77.0001 120Z" fill="#2B2B2B"/>
</g>
<g filter="url(#filter3_i_1009_1346)">
<circle cx="94.0001" cy="120" r="6" fill="#2B2B2B"/>
</g>
<defs>
<filter id="filter0_i_1009_1346" x="35.1893" y="-3.05176e-05" width="42.1813" height="66.4594" filterUnits="userSpaceOnUse" color-interpolation-filters="sRGB">
<feFlood flood-opacity="0" result="BackgroundImageFix"/>
<feBlend mode="normal" in="SourceGraphic" in2="BackgroundImageFix" result="shape"/>
<feColorMatrix in="SourceAlpha" type="matrix" values="0 0 0 0 0 0 0 0 0 0 0 0 0 0 0 0 0 0 127 0" result="hardAlpha"/>
<feMorphology radius="5" operator="dilate" in="SourceAlpha" result="effect1_innerShadow_1009_1346"/>
<feOffset dy="2"/>
<feGaussianBlur stdDeviation="2"/>
<feComposite in2="hardAlpha" operator="arithmetic" k2="-1" k3="1"/>
<feColorMatrix type="matrix" values="0 0 0 0 0.436039 0 0 0 0 0.436039 0 0 0 0 0.436039 0 0 0 1 0"/>
<feBlend mode="normal" in2="shape" result="effect1_innerShadow_1009_1346"/>
</filter>
<filter id="filter1_i_1009_1346" x="0.00012207" y="77" width="122" height="89" filterUnits="userSpaceOnUse" color-interpolation-filters="sRGB">
<feFlood flood-opacity="0" result="BackgroundImageFix"/>
<feBlend mode="normal" in="SourceGraphic" in2="BackgroundImageFix" result="shape"/>
<feColorMatrix in="SourceAlpha" type="matrix" values="0 0 0 0 0 0 0 0 0 0 0 0 0 0 0 0 0 0 127 0" result="hardAlpha"/>
<feMorphology radius="5" operator="dilate" in="SourceAlpha" result="effect1_innerShadow_1009_1346"/>
<feOffset dy="8"/>
<feGaussianBlur stdDeviation="4.5"/>
<feComposite in2="hardAlpha" operator="arithmetic" k2="-1" k3="1"/>
<feColorMatrix type="matrix" values="0 0 0 0 0.436039 0 0 0 0 0.436039 0 0 0 0 0.436039 0 0 0 1 0"/>
<feBlend mode="normal" in2="shape" result="effect1_innerShadow_1009_1346"/>
</filter>
<filter id="filter2_i_1009_1346" x="77.0001" y="106" width="45" height="32" filterUnits="userSpaceOnUse" color-interpolation-filters="sRGB">
<feFlood flood-opacity="0" result="BackgroundImageFix"/>
<feBlend mode="normal" in="SourceGraphic" in2="BackgroundImageFix" result="shape"/>
<feColorMatrix in="SourceAlpha" type="matrix" values="0 0 0 0 0 0 0 0 0 0 0 0 0 0 0 0 0 0 127 0" result="hardAlpha"/>
<feMorphology radius="5" operator="dilate" in="SourceAlpha" result="effect1_innerShadow_1009_1346"/>
<feOffset dy="8"/>
<feGaussianBlur stdDeviation="4.5"/>
<feComposite in2="hardAlpha" operator="arithmetic" k2="-1" k3="1"/>
<feColorMatrix type="matrix" values="0 0 0 0 0.436039 0 0 0 0 0.436039 0 0 0 0 0.436039 0 0 0 1 0"/>
<feBlend mode="normal" in2="shape" result="effect1_innerShadow_1009_1346"/>
</filter>
<filter id="filter3_i_1009_1346" x="88.0001" y="114" width="12" height="16" filterUnits="userSpaceOnUse" color-interpolation-filters="sRGB">
<feFlood flood-opacity="0" result="BackgroundImageFix"/>
<feBlend mode="normal" in="SourceGraphic" in2="BackgroundImageFix" result="shape"/>
<feColorMatrix in="SourceAlpha" type="matrix" values="0 0 0 0 0 0 0 0 0 0 0 0 0 0 0 0 0 0 127 0" result="hardAlpha"/>
<feMorphology radius="5" operator="dilate" in="SourceAlpha" result="effect1_innerShadow_1009_1346"/>
<feOffset dy="8"/>
<feGaussianBlur stdDeviation="4.5"/>
<feComposite in2="hardAlpha" operator="arithmetic" k2="-1" k3="1"/>
<feColorMatrix type="matrix" values="0 0 0 0 0.436039 0 0 0 0 0.436039 0 0 0 0 0.436039 0 0 0 1 0"/>
<feBlend mode="normal" in2="shape" result="effect1_innerShadow_1009_1346"/>
</filter>
</defs>
</svg>
