<svg width="106" height="141" viewBox="0 0 106 141" fill="none" xmlns="http://www.w3.org/2000/svg">
<g filter="url(#filter0_i_1009_1366)">
<rect x="0.00012207" y="113" width="106" height="28" rx="6" fill="#141414"/>
</g>
<path d="M34.3792 131.168C33.3392 131.168 32.5152 130.88 31.9072 130.304C31.2992 129.72 30.9952 128.888 30.9952 127.808V125.792C30.9952 124.712 31.2992 123.884 31.9072 123.308C32.5152 122.724 33.3392 122.432 34.3792 122.432C35.4112 122.432 36.2072 122.716 36.7672 123.284C37.3352 123.844 37.6192 124.616 37.6192 125.6V125.672H36.0592V125.552C36.0592 125.056 35.9192 124.648 35.6392 124.328C35.3672 124.008 34.9472 123.848 34.3792 123.848C33.8192 123.848 33.3792 124.02 33.0592 124.364C32.7392 124.708 32.5792 125.176 32.5792 125.768V127.832C32.5792 128.416 32.7392 128.884 33.0592 129.236C33.3792 129.58 33.8192 129.752 34.3792 129.752C34.9472 129.752 35.3672 129.592 35.6392 129.272C35.9192 128.944 36.0592 128.536 36.0592 128.048V127.832H37.6192V128C37.6192 128.984 37.3352 129.76 36.7672 130.328C36.2072 130.888 35.4112 131.168 34.3792 131.168ZM41.3099 131.168C40.7179 131.168 40.1859 131.048 39.7139 130.808C39.2419 130.568 38.8699 130.22 38.5979 129.764C38.3259 129.308 38.1899 128.76 38.1899 128.12V127.928C38.1899 127.288 38.3259 126.74 38.5979 126.284C38.8699 125.828 39.2419 125.48 39.7139 125.24C40.1859 125 40.7179 124.88 41.3099 124.88C41.9019 124.88 42.4339 125 42.9059 125.24C43.3779 125.48 43.7499 125.828 44.0219 126.284C44.2939 126.74 44.4299 127.288 44.4299 127.928V128.12C44.4299 128.76 44.2939 129.308 44.0219 129.764C43.7499 130.22 43.3779 130.568 42.9059 130.808C42.4339 131.048 41.9019 131.168 41.3099 131.168ZM41.3099 129.824C41.7739 129.824 42.1579 129.676 42.4619 129.38C42.7659 129.076 42.9179 128.644 42.9179 128.084V127.964C42.9179 127.404 42.7659 126.976 42.4619 126.68C42.1659 126.376 41.7819 126.224 41.3099 126.224C40.8459 126.224 40.4619 126.376 40.1579 126.68C39.8539 126.976 39.7019 127.404 39.7019 127.964V128.084C39.7019 128.644 39.8539 129.076 40.1579 129.38C40.4619 129.676 40.8459 129.824 41.3099 129.824ZM45.3455 131V125.048H46.8335V125.828H47.0495C47.1455 125.62 47.3255 125.424 47.5895 125.24C47.8535 125.048 48.2535 124.952 48.7895 124.952C49.2535 124.952 49.6575 125.06 50.0015 125.276C50.3535 125.484 50.6255 125.776 50.8175 126.152C51.0095 126.52 51.1055 126.952 51.1055 127.448V131H49.5935V127.568C49.5935 127.12 49.4815 126.784 49.2575 126.56C49.0415 126.336 48.7295 126.224 48.3215 126.224C47.8575 126.224 47.4975 126.38 47.2415 126.692C46.9855 126.996 46.8575 127.424 46.8575 127.976V131H45.3455ZM52.26 131V125.048H53.748V125.828H53.964C54.06 125.62 54.24 125.424 54.504 125.24C54.768 125.048 55.168 124.952 55.704 124.952C56.168 124.952 56.572 125.06 56.916 125.276C57.268 125.484 57.54 125.776 57.732 126.152C57.924 126.52 58.02 126.952 58.02 127.448V131H56.508V127.568C56.508 127.12 56.396 126.784 56.172 126.56C55.956 126.336 55.644 126.224 55.236 126.224C54.772 126.224 54.412 126.38 54.156 126.692C53.9 126.996 53.772 127.424 53.772 127.976V131H52.26ZM61.8866 131.168C61.2946 131.168 60.7706 131.044 60.3146 130.796C59.8666 130.54 59.5146 130.184 59.2586 129.728C59.0106 129.264 58.8866 128.72 58.8866 128.096V127.952C58.8866 127.328 59.0106 126.788 59.2586 126.332C59.5066 125.868 59.8546 125.512 60.3026 125.264C60.7506 125.008 61.2706 124.88 61.8626 124.88C62.4466 124.88 62.9546 125.012 63.3866 125.276C63.8186 125.532 64.1546 125.892 64.3946 126.356C64.6346 126.812 64.7546 127.344 64.7546 127.952V128.468H60.4226C60.4386 128.876 60.5906 129.208 60.8786 129.464C61.1666 129.72 61.5186 129.848 61.9346 129.848C62.3586 129.848 62.6706 129.756 62.8706 129.572C63.0706 129.388 63.2226 129.184 63.3266 128.96L64.5626 129.608C64.4506 129.816 64.2866 130.044 64.0706 130.292C63.8626 130.532 63.5826 130.74 63.2306 130.916C62.8786 131.084 62.4306 131.168 61.8866 131.168ZM60.4346 127.34H63.2186C63.1866 126.996 63.0466 126.72 62.7986 126.512C62.5586 126.304 62.2426 126.2 61.8506 126.2C61.4426 126.2 61.1186 126.304 60.8786 126.512C60.6386 126.72 60.4906 126.996 60.4346 127.34ZM68.4164 131.168C67.8404 131.168 67.3164 131.048 66.8444 130.808C66.3804 130.568 66.0124 130.22 65.7404 129.764C65.4684 129.308 65.3324 128.756 65.3324 128.108V127.94C65.3324 127.292 65.4684 126.74 65.7404 126.284C66.0124 125.828 66.3804 125.48 66.8444 125.24C67.3164 125 67.8404 124.88 68.4164 124.88C68.9844 124.88 69.4724 124.98 69.8804 125.18C70.2884 125.38 70.6164 125.656 70.8644 126.008C71.1204 126.352 71.2884 126.744 71.3684 127.184L69.9044 127.496C69.8724 127.256 69.8004 127.04 69.6884 126.848C69.5764 126.656 69.4164 126.504 69.2084 126.392C69.0084 126.28 68.7564 126.224 68.4524 126.224C68.1484 126.224 67.8724 126.292 67.6244 126.428C67.3844 126.556 67.1924 126.752 67.0484 127.016C66.9124 127.272 66.8444 127.588 66.8444 127.964V128.084C66.8444 128.46 66.9124 128.78 67.0484 129.044C67.1924 129.3 67.3844 129.496 67.6244 129.632C67.8724 129.76 68.1484 129.824 68.4524 129.824C68.9084 129.824 69.2524 129.708 69.4844 129.476C69.7244 129.236 69.8764 128.924 69.9404 128.54L71.4044 128.888C71.3004 129.312 71.1204 129.7 70.8644 130.052C70.6164 130.396 70.2884 130.668 69.8804 130.868C69.4724 131.068 68.9844 131.168 68.4164 131.168ZM74.2524 131C73.8604 131 73.5404 130.88 73.2924 130.64C73.0524 130.392 72.9324 130.064 72.9324 129.656V126.296H71.4444V125.048H72.9324V123.2H74.4444V125.048H76.0764V126.296H74.4444V129.392C74.4444 129.632 74.5564 129.752 74.7804 129.752H75.9324V131H74.2524Z" fill="#ABABA8"/>
<g filter="url(#filter1_i_1009_1366)">
<rect x="6.00012" y="-3.05176e-05" width="100" height="100" rx="50" fill="#141414"/>
</g>
<g filter="url(#filter2_i_1009_1366)">
<path d="M43.5849 37.5848C42.2406 36.2405 40.0336 36.2273 38.9268 37.773C37.1951 40.191 35.989 42.9605 35.4036 45.9031C34.5933 49.9767 35.0092 54.1991 36.5987 58.0364C38.1881 61.8736 40.8797 65.1534 44.3331 67.4609C47.7866 69.7684 51.8467 71 56.0001 71C60.1535 71 64.2137 69.7684 67.6671 67.4609C71.1205 65.1534 73.8122 61.8736 75.4016 58.0364C76.991 54.1991 77.4069 49.9767 76.5966 45.9031C76.0113 42.9605 74.8051 40.191 73.0735 37.773C71.9666 36.2273 69.7596 36.2405 68.4154 37.5848C67.0711 38.929 67.1161 41.095 68.096 42.7241C68.9309 44.112 69.5252 45.6408 69.8445 47.2462C70.3891 49.9843 70.1096 52.8225 69.0412 55.4018C67.9729 57.9811 66.1636 60.1856 63.8423 61.7367C61.521 63.2877 58.7919 64.1156 56.0001 64.1156C53.2083 64.1156 50.4792 63.2877 48.1579 61.7367C45.8366 60.1856 44.0274 57.9811 42.959 55.4018C41.8906 52.8225 41.6111 49.9843 42.1558 47.2462C42.4751 45.6408 43.0693 44.1121 43.9042 42.7241C44.8841 41.095 44.9291 38.929 43.5849 37.5848Z" fill="#2B2B2B"/>
<path d="M53.0001 29.5C53.0001 27.567 54.5671 26 56.5001 26C58.4331 26 60.0001 27.567 60.0001 29.5V49.5C60.0001 51.433 58.4331 53 56.5001 53C54.5671 53 53.0001 51.433 53.0001 49.5V29.5Z" fill="#2B2B2B"/>
</g>
<defs>
<filter id="filter0_i_1009_1366" x="0.00012207" y="113" width="106" height="32" filterUnits="userSpaceOnUse" color-interpolation-filters="sRGB">
<feFlood flood-opacity="0" result="BackgroundImageFix"/>
<feBlend mode="normal" in="SourceGraphic" in2="BackgroundImageFix" result="shape"/>
<feColorMatrix in="SourceAlpha" type="matrix" values="0 0 0 0 0 0 0 0 0 0 0 0 0 0 0 0 0 0 127 0" result="hardAlpha"/>
<feMorphology radius="5" operator="dilate" in="SourceAlpha" result="effect1_innerShadow_1009_1366"/>
<feOffset dy="8"/>
<feGaussianBlur stdDeviation="4.5"/>
<feComposite in2="hardAlpha" operator="arithmetic" k2="-1" k3="1"/>
<feColorMatrix type="matrix" values="0 0 0 0 0.436039 0 0 0 0 0.436039 0 0 0 0 0.436039 0 0 0 1 0"/>
<feBlend mode="normal" in2="shape" result="effect1_innerShadow_1009_1366"/>
</filter>
<filter id="filter1_i_1009_1366" x="6.00012" y="-3.05176e-05" width="99.9999" height="104" filterUnits="userSpaceOnUse" color-interpolation-filters="sRGB">
<feFlood flood-opacity="0" result="BackgroundImageFix"/>
<feBlend mode="normal" in="SourceGraphic" in2="BackgroundImageFix" result="shape"/>
<feColorMatrix in="SourceAlpha" type="matrix" values="0 0 0 0 0 0 0 0 0 0 0 0 0 0 0 0 0 0 127 0" result="hardAlpha"/>
<feMorphology radius="5" operator="dilate" in="SourceAlpha" result="effect1_innerShadow_1009_1366"/>
<feOffset dy="8"/>
<feGaussianBlur stdDeviation="4.5"/>
<feComposite in2="hardAlpha" operator="arithmetic" k2="-1" k3="1"/>
<feColorMatrix type="matrix" values="0 0 0 0 0.436039 0 0 0 0 0.436039 0 0 0 0 0.436039 0 0 0 1 0"/>
<feBlend mode="normal" in2="shape" result="effect1_innerShadow_1009_1366"/>
</filter>
<filter id="filter2_i_1009_1366" x="35.0001" y="26" width="42" height="49" filterUnits="userSpaceOnUse" color-interpolation-filters="sRGB">
<feFlood flood-opacity="0" result="BackgroundImageFix"/>
<feBlend mode="normal" in="SourceGraphic" in2="BackgroundImageFix" result="shape"/>
<feColorMatrix in="SourceAlpha" type="matrix" values="0 0 0 0 0 0 0 0 0 0 0 0 0 0 0 0 0 0 127 0" result="hardAlpha"/>
<feMorphology radius="5" operator="dilate" in="SourceAlpha" result="effect1_innerShadow_1009_1366"/>
<feOffset dy="8"/>
<feGaussianBlur stdDeviation="4.5"/>
<feComposite in2="hardAlpha" operator="arithmetic" k2="-1" k3="1"/>
<feColorMatrix type="matrix" values="0 0 0 0 0.436039 0 0 0 0 0.436039 0 0 0 0 0.436039 0 0 0 1 0"/>
<feBlend mode="normal" in2="shape" result="effect1_innerShadow_1009_1366"/>
</filter>
</defs>
</svg>
