<svg width="424" height="470" viewBox="0 0 424 470" fill="none" xmlns="http://www.w3.org/2000/svg">
<g filter="url(#filter0_d_550_928)">
<rect width="396" height="536" rx="40" fill="#A6A6A6" shape-rendering="crispEdges"/>
<rect x="24" y="26" width="348" height="350" rx="32" fill="#1C1C1C"/>
<path fill-rule="evenodd" clip-rule="evenodd" d="M83.7186 252.432L143.804 134.657C144.258 133.766 144.763 132.913 145.313 132.101C145.971 130.545 146.689 129.002 147.468 127.475C165.071 92.9709 207.312 79.2699 241.815 96.8727C276.319 114.476 290.02 156.716 272.417 191.22C272.144 191.756 271.865 192.286 271.58 192.812C271.454 193.091 271.321 193.369 271.181 193.644L216.027 301.752C213.619 306.471 207.842 308.345 203.123 305.937C198.404 303.53 196.53 297.752 198.938 293.033L233.424 225.435C228.15 227.308 222.655 228.552 217.064 229.128L173.447 314.623C171.198 319.032 165.799 320.783 161.389 318.534C156.98 316.284 155.229 310.886 157.478 306.476L197.332 228.358C192.971 227.559 188.637 226.335 184.386 224.666L157.572 277.225C155.086 282.099 149.119 284.034 144.245 281.548C139.371 279.061 137.436 273.094 139.923 268.221L167.121 214.908C163.707 212.283 160.584 209.379 157.77 206.247L142.357 236.458C140.068 240.945 134.575 242.726 130.088 240.437C125.601 238.148 123.819 232.655 126.108 228.168L143.509 194.06C144.733 191.662 143.78 188.726 141.382 187.503C138.984 186.279 136.048 187.231 134.824 189.63L98.847 260.15C96.7157 264.327 91.6013 265.986 87.4238 263.855C83.2462 261.724 81.5873 256.609 83.7186 252.432ZM100.868 277.137C98.5154 281.748 100.346 287.393 104.957 289.745C109.569 292.098 115.214 290.267 117.566 285.656L123.441 274.139C125.794 269.528 123.963 263.883 119.352 261.531C114.741 259.178 109.095 261.009 106.743 265.621L100.868 277.137Z" fill="#575757"/>
<path d="M240.975 173.458C247.678 157.583 241.662 138.829 226.352 129.99C215.288 123.602 202.167 124.006 191.816 129.908L187.516 122.382C200.455 115.005 216.855 114.5 230.685 122.484C250.145 133.719 257.594 157.768 248.527 177.819L254.342 181.176L236.293 190.77L235.578 170.343L240.975 173.458ZM177.062 146.566C170.358 162.441 176.375 181.195 191.685 190.034C202.748 196.421 215.869 196.018 226.219 190.116L230.52 197.643C217.581 205.019 201.181 205.524 187.352 197.54C167.892 186.305 160.443 162.256 169.509 142.205L163.695 138.848L181.743 129.254L182.459 149.681L177.062 146.566ZM215.146 172.268L202.89 160.012L190.633 172.268L184.505 166.14L202.89 147.755L215.146 160.012L227.403 147.755L233.531 153.884L215.146 172.268Z" fill="#1C1C1C"/>
</g>
<defs>
<filter id="filter0_d_550_928" x="0" y="0" width="424" height="556" filterUnits="userSpaceOnUse" color-interpolation-filters="sRGB">
<feFlood flood-opacity="0" result="BackgroundImageFix"/>
<feColorMatrix in="SourceAlpha" type="matrix" values="0 0 0 0 0 0 0 0 0 0 0 0 0 0 0 0 0 0 127 0" result="hardAlpha"/>
<feOffset dx="24" dy="16"/>
<feGaussianBlur stdDeviation="2"/>
<feComposite in2="hardAlpha" operator="out"/>
<feColorMatrix type="matrix" values="0 0 0 0 0.218461 0 0 0 0 0.218461 0 0 0 0 0.218461 0 0 0 1 0"/>
<feBlend mode="normal" in2="BackgroundImageFix" result="effect1_dropShadow_550_928"/>
<feBlend mode="normal" in="SourceGraphic" in2="effect1_dropShadow_550_928" result="shape"/>
</filter>
</defs>
</svg>
