<svg width="34" height="35" viewBox="0 0 34 35" fill="none" xmlns="http://www.w3.org/2000/svg">
<g filter="url(#filter0_i_974_781)">
<path d="M14.8576 21.7456C16.2785 22.1035 19.3842 22.8857 19.878 20.9937C20.3838 19.0593 17.3725 18.4149 15.9027 18.1003C15.7383 18.0651 15.5932 18.0341 15.4745 18.0058L14.5181 21.6616C14.6154 21.6846 14.73 21.7135 14.8576 21.7456Z" fill="url(#paint0_linear_974_781)"/>
<path d="M16.1975 16.4036C17.3822 16.7051 19.9665 17.3628 20.4166 15.6432C20.8762 13.8844 18.3648 13.3542 17.1382 13.0952C17.0005 13.0661 16.8782 13.0403 16.779 13.0167L15.912 16.3323C15.9938 16.3517 16.09 16.3762 16.1975 16.4036Z" fill="url(#paint1_linear_974_781)"/>
<path fill-rule="evenodd" clip-rule="evenodd" d="M24.2338 5.60503C21.8131 -1.20168 12.1869 -1.20168 9.76624 5.60503C8.99251 7.78066 7.28066 9.49251 5.10503 10.2662C-1.70168 12.6869 -1.70168 22.3131 5.10503 24.7338C7.28066 25.5075 8.99251 27.2193 9.76624 29.395C12.1869 36.2017 21.8131 36.2017 24.2338 29.395C25.0075 27.2193 26.7193 25.5075 28.895 24.7338C35.7017 22.3131 35.7017 12.6869 28.895 10.2662C26.7193 9.49251 25.0075 7.78066 24.2338 5.60503ZM20.3662 11.8542C22.5649 12.5764 24.1728 13.659 23.857 15.673C23.6284 17.1473 22.7719 17.8613 21.634 18.1115C23.1964 18.8872 23.9914 20.0767 23.2341 22.139C22.2942 24.7004 20.0612 24.9165 17.0916 24.3805L16.371 27.1348L14.6294 26.721L15.3407 24.0037C14.8892 23.8967 14.428 23.7832 13.9528 23.6602L13.2391 26.3904L11.4996 25.9766L12.2203 23.2171C12.0542 23.1766 11.8871 23.1351 11.7189 23.0933L11.7149 23.0923C11.4721 23.0319 11.2268 22.971 10.9786 22.9116L8.71231 22.3729L9.57695 20.4719C9.57695 20.4719 10.8602 20.7972 10.8427 20.7731C11.3358 20.8895 11.5545 20.5829 11.6407 20.3786L12.7796 16.0247C12.8252 16.0351 12.8701 16.0459 12.913 16.0561L12.9636 16.0681C12.8941 16.0415 12.8311 16.0245 12.7826 16.0127L13.5951 12.9047C13.6163 12.5519 13.4887 12.1067 12.7835 11.9388C12.8107 11.9215 11.5187 11.639 11.5187 11.639L11.9819 9.86528L14.3835 10.4372L14.3815 10.4457C14.7426 10.5314 15.1147 10.6127 15.4935 10.695L16.2072 7.9677L17.9477 8.38151L17.2483 11.0554C17.7156 11.1571 18.1857 11.2597 18.6436 11.3686L19.3379 8.71225L21.0795 9.12606L20.3662 11.8542ZM19.878 20.9937C19.3842 22.8857 16.2785 22.1035 14.8576 21.7456C14.73 21.7135 14.6154 21.6846 14.5181 21.6616L15.4745 18.0058C15.5932 18.0341 15.7383 18.0651 15.9027 18.1003C17.3725 18.4149 20.3838 19.0593 19.878 20.9937ZM20.4166 15.6432C19.9665 17.3628 17.3822 16.7051 16.1975 16.4036C16.09 16.3762 15.9938 16.3517 15.912 16.3323L16.779 13.0167C16.8782 13.0403 17.0005 13.0661 17.1382 13.0952C18.3648 13.3542 20.8762 13.8844 20.4166 15.6432Z" fill="url(#paint2_linear_974_781)"/>
</g>
<defs>
<filter id="filter0_i_974_781" x="0" y="0.5" width="34" height="38" filterUnits="userSpaceOnUse" color-interpolation-filters="sRGB">
<feFlood flood-opacity="0" result="BackgroundImageFix"/>
<feBlend mode="normal" in="SourceGraphic" in2="BackgroundImageFix" result="shape"/>
<feColorMatrix in="SourceAlpha" type="matrix" values="0 0 0 0 0 0 0 0 0 0 0 0 0 0 0 0 0 0 127 0" result="hardAlpha"/>
<feOffset dy="4"/>
<feGaussianBlur stdDeviation="2"/>
<feComposite in2="hardAlpha" operator="arithmetic" k2="-1" k3="1"/>
<feColorMatrix type="matrix" values="0 0 0 0 0.454557 0 0 0 0 0.454557 0 0 0 0 0.454557 0 0 0 0.25 0"/>
<feBlend mode="normal" in2="shape" result="effect1_innerShadow_974_781"/>
</filter>
<linearGradient id="paint0_linear_974_781" x1="12.6951" y1="0.5" x2="17" y2="34.5" gradientUnits="userSpaceOnUse">
<stop stop-color="#FCFCFC"/>
<stop offset="1" stop-color="#D9D9D9"/>
</linearGradient>
<linearGradient id="paint1_linear_974_781" x1="12.6951" y1="0.5" x2="17" y2="34.5" gradientUnits="userSpaceOnUse">
<stop stop-color="#FCFCFC"/>
<stop offset="1" stop-color="#D9D9D9"/>
</linearGradient>
<linearGradient id="paint2_linear_974_781" x1="12.6951" y1="0.5" x2="17" y2="34.5" gradientUnits="userSpaceOnUse">
<stop stop-color="#FCFCFC"/>
<stop offset="1" stop-color="#D9D9D9"/>
</linearGradient>
</defs>
</svg>
