<svg width="266" height="81" viewBox="0 0 266 81" fill="none" xmlns="http://www.w3.org/2000/svg">
<path d="M36.3078 53.0754C36.3078 51.7151 36.3078 50.5103 36.3078 49.3055C36.3078 45.9107 36.3113 42.5158 36.3078 39.1193C36.3044 37.0675 35.4657 36.2257 33.4374 36.2205C32.4863 36.2188 31.5335 36.2707 30.5877 36.2032C28.772 36.0719 27.7587 37.2905 27.7916 38.9983C27.8573 42.3049 27.8123 45.6151 27.8106 48.9252C27.8106 50.2493 27.821 51.5733 27.7967 52.8956C27.776 53.9708 27.1103 54.7227 26.0416 54.8852C25.2462 55.0062 24.4421 55.0822 23.6415 55.1704C22.0334 55.345 20.8246 54.676 20.0552 53.3036C17.2936 48.3807 16.0867 43.1018 16.6417 37.4703C17.3559 30.2312 20.3751 24.0914 25.9119 19.3656C33.1521 13.1896 41.5438 11.1551 50.7345 13.6494C59.8612 16.1246 66.0551 22.0328 69.3354 30.926C69.8455 32.3071 69.619 33.6433 68.6489 34.7236C67.0425 36.5144 65.3928 38.274 63.6602 39.942C62.41 41.1451 60.9955 42.177 59.5049 43.4112C59.46 42.9722 59.4185 42.7596 59.4185 42.5469C59.415 37.5982 59.4185 32.6494 59.4168 27.7006C59.4168 25.4103 58.6542 24.6446 56.3734 24.6428C55.3653 24.6428 54.3571 24.6359 53.349 24.648C52.002 24.6653 51.0803 25.5071 50.9454 26.8484C50.9005 27.3048 50.9005 27.768 50.9005 28.2278C50.897 34.0979 50.8365 39.968 50.9368 45.8363C50.9679 47.6133 50.3973 48.6919 48.7044 49.1776C48.4658 49.2467 48.2341 49.3452 47.8623 49.4783C47.8623 48.7005 47.8623 48.0212 47.8623 47.3402C47.8657 42.6783 47.8173 38.0165 47.8969 33.3563C47.9297 31.4602 46.7297 30.2675 44.9434 30.4144C44.0287 30.4904 43.1018 30.4196 42.1802 30.423C40.202 30.4334 39.346 31.2769 39.3426 33.2768C39.3322 38.6854 39.3391 44.0957 39.3391 49.5043C39.3391 49.7912 39.3426 50.0799 39.3391 50.3668C39.3149 51.9242 38.893 52.448 37.3574 52.83C37.0548 52.906 36.7488 52.9717 36.3078 53.0737V53.0754Z" fill="white"/>
<path d="M49.214 55.2059C58.6862 50.2931 71.8917 39.156 71.8917 39.156C71.8917 54.7662 59.0634 67.6109 43.4731 67.6109C36.0359 67.6109 28.8866 64.6866 23.5757 59.4728C23.5757 59.4728 40.6217 59.6626 49.2122 55.2077L49.214 55.2059Z" fill="#D0D0D0"/>
<path d="M85.01 25.9826C89.6888 26.1507 94.3046 26.101 98.8689 26.5517C102.209 26.8821 104.176 29.3208 104.445 32.4585C104.743 35.9246 103.332 38.1972 100.062 39.5206C100.007 39.5436 99.9612 39.5913 99.839 39.6792C100.001 39.7899 100.127 39.9236 100.28 39.9713C103.477 41.0064 105.242 43.6456 105.098 47.1996C104.97 50.3946 102.82 53.0109 99.6461 53.6927C98.4124 53.9581 97.1348 54.1224 95.8744 54.1453C92.5381 54.2083 89.1999 54.1568 85.8617 54.1797C85.2144 54.1835 84.8897 54.0823 84.8916 53.3108C84.9145 44.5107 84.905 35.7088 84.9069 26.9088C84.9069 26.693 84.9527 26.4772 85.01 25.9807V25.9826ZM89.3966 45.9889H89.3928C89.3928 47.1958 89.4196 48.4047 89.3814 49.6116C89.3623 50.2036 89.5093 50.4901 90.1624 50.4748C92.1333 50.429 94.106 50.4748 96.073 50.3831C97.4328 50.3201 98.697 49.8962 99.5888 48.7561C100.666 47.3772 100.802 45.8265 100.2 44.2587C99.5239 42.496 98.0171 41.7092 96.2449 41.5889C94.2187 41.4514 92.1772 41.5335 90.1453 41.4819C89.538 41.4667 89.3775 41.7149 89.389 42.2706C89.4138 43.5101 89.3966 44.7495 89.3966 45.9889ZM89.3966 33.9538C89.3966 35.0653 89.431 36.1786 89.3833 37.2882C89.3546 37.9738 89.5399 38.2602 90.2789 38.2354C91.7074 38.1877 93.1454 38.3156 94.5663 38.1972C95.7446 38.0979 96.9878 37.9432 98.0458 37.4639C99.6003 36.7611 100.23 34.7463 99.776 32.8385C99.3826 31.1847 97.9503 29.993 96.0043 29.8899C94.0392 29.7868 92.0664 29.8345 90.0975 29.7925C89.5513 29.7811 89.3756 29.9988 89.389 30.5239C89.4157 31.666 89.3966 32.8099 89.3985 33.9538H89.3966Z" fill="white"/>
<path d="M219.181 49.6135C217.039 53.3909 213.832 54.7487 209.747 54.3534C206.044 53.9944 202.872 51.2463 201.835 47.4746C200.785 43.6532 200.944 39.9159 202.987 36.4211C206.245 30.8504 215.07 30.4475 218.377 35.8616C218.586 36.2034 218.765 36.5624 219.132 36.8947V32.2846C220.551 32.2846 221.846 32.256 223.137 32.319C223.31 32.3267 223.587 32.785 223.602 33.0485C223.66 34.0301 223.627 35.0175 223.627 36.0029C223.627 41.6289 223.627 47.255 223.627 52.8829C223.627 53.261 223.627 53.6392 223.627 54.0994H219.183V49.6173L219.181 49.6135ZM219.25 43.2923C219.078 42.3623 218.983 41.4093 218.719 40.5041C217.967 37.9145 215.698 36.1747 212.954 35.9952C209.973 35.8004 207.654 37.1411 206.495 39.723C205.823 41.2202 205.779 42.8015 205.901 44.3923C206.245 48.8859 210.58 51.632 214.799 50.0432C217.573 48.9985 219.046 46.7126 219.25 43.2904V43.2923Z" fill="white"/>
<path d="M154.18 46.4263H158.794C158.857 46.6115 158.945 46.8101 158.995 47.0183C159.844 50.6506 163.742 51.5195 166.246 50.4138C168.597 49.3749 169.296 46.0042 167.405 44.2683C166.41 43.3554 165.1 42.731 163.845 42.1733C161.993 41.3521 160.018 40.8002 158.173 39.9657C155.198 38.6212 153.751 35.9896 154.006 32.724C154.247 29.6551 156.168 27.2641 159.186 26.3608C162.178 25.4652 165.142 25.5778 168.043 26.7733C170.531 27.7988 172.571 30.6844 172.523 33.1938C171.106 33.1938 169.683 33.2225 168.264 33.1633C168.045 33.1537 167.756 32.7718 167.646 32.5025C166.666 30.1077 164.359 28.874 161.876 29.4527C160.16 29.8537 159.065 30.904 158.851 32.3593C158.576 34.2308 159.214 35.7872 160.901 36.574C162.877 37.4964 164.98 38.1457 166.987 39.007C168.259 39.5532 169.597 40.0994 170.663 40.9492C174.715 44.1785 173.927 50.9447 169.305 53.2975C165.411 55.2797 160.013 54.6514 156.768 51.8403C155.169 50.4558 154.094 48.2176 154.184 46.4244L154.18 46.4263Z" fill="white"/>
<path d="M249.632 54.1282H245.194C245.194 53.7157 245.194 53.3452 245.194 52.9747C245.18 49.1304 245.238 45.2842 245.134 41.4438C245.039 37.8401 242.942 35.7566 239.611 35.728C236.22 35.6974 233.794 37.9414 233.67 41.4629C233.539 45.2384 233.598 49.0216 233.577 52.8028C233.569 54.174 233.575 54.174 232.169 54.1702C231.19 54.1683 230.212 54.1702 229.165 54.1702V32.3459H233.548V36.6618C234.335 35.6783 234.917 34.6891 235.739 33.971C238.328 31.7042 241.395 31.4177 244.502 32.5101C247.619 33.6063 249.12 36.1252 249.51 39.324C249.632 40.3285 249.664 41.3502 249.668 42.3643C249.687 45.9545 249.676 49.5448 249.674 53.1351C249.674 53.4445 249.649 53.7558 249.632 54.1301V54.1282Z" fill="white"/>
<path d="M150.477 46.0921C149.912 49.14 148.447 51.3859 145.913 52.9232C142.053 55.2683 135.184 55.1537 131.668 50.7385C130.374 49.1133 129.619 47.2418 129.369 45.185C129.033 42.4159 129.314 39.727 130.654 37.231C132.003 34.7178 134.109 33.0793 136.863 32.4471C140.908 31.5171 144.717 31.9659 147.828 35.0348C149.251 36.4385 150.174 38.1534 150.435 40.3076C148.947 40.3076 147.525 40.3267 146.104 40.2827C145.921 40.277 145.668 39.9676 145.584 39.748C144.578 37.1011 142.491 35.7662 139.578 35.9362C136.918 36.0928 134.766 37.8937 134.17 40.5138C133.668 42.7272 133.698 44.9176 134.59 47.0508C135.524 49.2813 137.669 50.5914 140.308 50.5227C142.84 50.4577 144.721 49.0827 145.581 46.7395C145.68 46.4702 146.058 46.1341 146.322 46.1207C147.649 46.0577 148.98 46.0921 150.481 46.0921H150.477Z" fill="white"/>
<path d="M197.905 40.3113C196.412 40.3113 195.05 40.3342 193.692 40.2884C193.465 40.2808 193.133 40.0134 193.045 39.7881C191.998 37.1144 190.138 35.8598 187.257 35.9342C184.661 36.0011 182.465 37.5556 181.759 40.1184C180.997 42.8856 180.945 45.6776 182.694 48.1641C184.123 50.1941 186.223 50.8033 188.584 50.4348C190.79 50.0891 192.348 48.8688 193.047 46.6631C193.121 46.4301 193.448 46.1207 193.668 46.1131C195.027 46.0615 196.389 46.0882 197.861 46.0882C197.785 47.4059 197.327 48.483 196.729 49.5276C193.82 54.6018 187.15 55.4401 182.712 53.4445C178.777 51.6761 177.095 48.3971 176.746 44.3046C176.566 42.1981 176.822 40.1318 177.679 38.1533C179.11 34.8533 181.629 32.8768 185.102 32.2676C188.973 31.5877 192.587 32.2007 195.451 35.2009C196.775 36.5855 197.604 38.2335 197.909 40.3113H197.905Z" fill="white"/>
<path d="M108.561 47.2628C109.919 47.2628 111.183 47.2399 112.443 47.2876C112.625 47.2953 112.894 47.6065 112.951 47.8223C113.679 50.5666 116.633 51.6437 119.322 51.109C120.512 50.8722 121.425 49.8084 121.577 48.676C121.751 47.3812 121.331 46.3461 120.04 45.7999C118.591 45.185 117.034 44.8222 115.52 44.3677C114.67 44.1117 113.801 43.9112 112.953 43.6477C110.644 42.9258 109.063 41.5088 108.771 38.9975C108.471 36.4308 109.523 34.4486 111.704 33.1461C114.424 31.5229 120.474 31.3013 123.457 34.7102C124.558 35.9706 125.296 37.4105 125.483 39.2133C124.192 39.2133 122.989 39.2534 121.791 39.1789C121.556 39.1637 121.232 38.7473 121.144 38.4551C120.141 35.1628 116.391 34.7484 114.445 35.6574C112.472 36.5798 112.296 39.5838 114.137 40.3496C115.678 40.9893 117.296 41.4458 118.887 41.9595C119.851 42.2708 120.848 42.4923 121.801 42.8341C124.037 43.6343 125.532 45.0914 125.746 47.5779C125.977 50.2706 124.877 52.2395 122.484 53.5038C119.629 55.0124 113.278 54.8558 110.465 51.5043C109.464 50.3126 108.731 49.0255 108.557 47.2609L108.561 47.2628Z" fill="white"/>
</svg>
