<svg width="210" height="81" viewBox="0 0 210 81" fill="none" xmlns="http://www.w3.org/2000/svg">
<path d="M55.4787 28.9435C53.5466 27.8382 51.7043 26.7912 49.7767 25.6904C49.9699 25.5511 50.1092 25.4163 50.271 25.3399C52.7558 24.1896 55.2495 23.0483 57.7343 21.8981C58.1791 21.6914 58.588 21.7004 59.0194 21.925C60.6055 22.7518 62.1647 23.646 63.8047 24.3559C64.7034 24.7423 64.8427 25.2635 64.8112 26.1217C64.7124 28.62 64.6989 31.1228 64.6584 33.621C64.6539 33.949 64.5686 34.1602 64.2316 34.313C60.4213 36.0204 56.6245 37.7503 52.8142 39.4623C48.1367 41.5606 43.4547 43.641 38.7772 45.7394C34.6299 47.6041 30.4871 49.4823 26.3443 51.356C26.196 51.4234 26.0612 51.5222 25.8411 51.6525C27.7148 52.7129 29.5256 53.7419 31.4577 54.8382C30.595 55.2561 29.8895 55.6111 29.1706 55.9391C27.2565 56.8153 25.3288 57.669 23.4192 58.5542C23.0283 58.7339 22.7138 58.7519 22.3183 58.5452C20.548 57.6286 18.7507 56.7614 16.9848 55.8402C16.8141 55.7504 16.6973 55.3954 16.6973 55.1618C16.6973 53.2791 16.7377 51.3919 16.7692 49.5092C16.7781 48.7993 16.8051 48.0938 16.8096 47.3839C16.8096 46.7593 17.0657 46.3594 17.6633 46.0943C21.5141 44.3824 25.3468 42.6435 29.1886 40.9091C36.7148 37.5167 44.2455 34.1198 51.7717 30.7273C52.7063 30.305 53.6409 29.8826 54.571 29.4513C54.8496 29.321 55.1102 29.1547 55.4787 28.948V28.9435Z" fill="white"/>
<path d="M24.2369 28.9344C24.2369 29.3388 24.2369 29.6308 24.2369 29.9229C24.2369 32.1606 24.2504 34.4027 24.2234 36.6404C24.2234 36.865 24.0527 37.211 23.8684 37.2919C21.5903 38.3163 19.2943 39.3004 17.0072 40.2934C16.9443 40.3203 16.8724 40.3338 16.6792 40.3877C16.6792 38.9589 16.6792 37.5839 16.6792 36.209C16.6792 32.6279 16.6882 29.0422 16.6792 25.4611C16.6792 25.0702 16.7736 24.8096 17.16 24.6164C19.0651 23.6773 20.9658 22.7247 22.853 21.7452C23.5359 21.3902 24.1201 21.3497 24.8435 21.7227C29.7546 24.2749 34.6927 26.7821 39.6173 29.3073C39.86 29.4331 40.0846 29.5994 40.4306 29.8151C39.6713 30.1566 39.0108 30.4441 38.3592 30.7452C36.6293 31.5315 34.8904 32.2998 33.1785 33.1266C32.7112 33.3513 32.3427 33.3288 31.9249 33.0997C30.1725 32.1471 28.4156 31.199 26.6632 30.2509C25.8949 29.833 25.1265 29.4152 24.2414 28.9299L24.2369 28.9344Z" fill="white"/>
<path d="M57.3432 51.3198C57.3611 51.0277 57.3881 50.8255 57.3881 50.6278C57.4195 48.3138 57.4555 45.9998 57.4735 43.6857C57.4735 43.3128 57.5588 43.1016 57.9453 42.9309C60.1604 41.9513 62.3532 40.9269 64.5593 39.9204C64.6043 39.8979 64.6672 39.9024 64.775 39.8889C64.7885 40.1585 64.8155 40.4101 64.8155 40.6618C64.8245 45.3258 64.8245 49.9898 64.8424 54.6538C64.8424 55.1436 64.6492 55.4401 64.2134 55.6648C62.124 56.7432 60.0526 57.8485 57.9632 58.9179C57.7655 59.0168 57.4375 59.0437 57.2488 58.9449C52.468 56.4601 47.6961 53.9573 42.9243 51.4546C42.3671 51.1625 41.8234 50.839 41.1719 50.4706C41.6347 50.2818 42.0076 50.1381 42.3716 49.9718C44.4475 49.0417 46.5144 48.0981 48.6037 47.195C48.8329 47.0961 49.2014 47.1276 49.435 47.2444C51.5468 48.3138 53.6407 49.4146 55.7436 50.5065C56.2378 50.7626 56.7366 51.0143 57.3387 51.3198H57.3432Z" fill="white"/>
<path d="M28.6808 18.8111C29.6917 18.2629 30.6353 17.7372 31.5879 17.243C34.4816 15.7422 37.3842 14.2504 40.2734 12.7497C40.6643 12.5475 40.9968 12.5744 41.3787 12.7766C45.2969 14.8525 49.2195 16.9194 53.1421 18.9863C53.1916 19.0133 53.2365 19.0403 53.3713 19.1122C53.0882 19.2919 52.904 19.4402 52.6973 19.5345C50.1945 20.6893 47.6918 21.8441 45.1756 22.9719C44.9464 23.0752 44.578 23.0393 44.3398 22.9314C43.2929 22.4417 42.2684 21.907 41.2439 21.3813C40.853 21.1791 40.5205 21.1656 40.1027 21.4082C39.2489 21.9025 38.3458 22.3069 37.4651 22.7517C37.0517 22.9629 36.6518 22.9539 36.234 22.7427C33.7896 21.5071 31.3408 20.2804 28.8964 19.0492C28.838 19.0178 28.7976 18.9504 28.6763 18.8156L28.6808 18.8111Z" fill="white"/>
<path d="M53.4071 61.4973C49.2418 63.5552 45.1979 65.5547 41.1494 67.5318C40.9382 67.6351 40.5833 67.6396 40.3721 67.5318C36.9617 65.8063 33.5648 64.0585 30.1724 62.3061C29.6197 62.023 29.103 61.6725 28.5503 61.349C31.1519 60.1628 33.6546 59.0125 36.1709 57.9027C36.4405 57.7814 36.8539 57.8128 37.1369 57.9296C38.0985 58.3295 39.0421 58.7834 39.9677 59.2551C40.5069 59.5292 41.0011 59.5607 41.5673 59.3091C42.794 58.7609 44.0296 58.2397 45.2787 57.7589C45.5528 57.6555 45.9527 57.6466 46.2088 57.7724C48.451 58.8687 50.6797 60.001 52.9038 61.1288C53.0566 61.2052 53.1869 61.3355 53.4026 61.4928L53.4071 61.4973Z" fill="white"/>
<path d="M128.682 50.5484V33.9458C127.424 33.9458 126.216 33.9144 125.011 33.9593C124.436 33.9818 124.274 33.8155 124.297 33.2404C124.346 32.1665 124.31 31.0881 124.31 29.9288C124.14 30.0591 123.946 30.158 123.825 30.3107C123.344 30.9084 122.877 31.5105 122.428 32.126C120.63 34.6018 118.847 37.0866 117.036 39.5534C116.739 39.9578 116.766 40.2499 117.049 40.6363C119.314 43.7187 121.561 46.8145 123.812 49.9059C123.929 50.0677 124.027 50.2384 124.162 50.4496C124.014 50.499 123.933 50.5484 123.852 50.5484C122.284 50.5709 120.716 50.5844 119.148 50.6158C118.676 50.6248 118.366 50.4496 118.087 50.0497C116.789 48.203 115.459 46.3787 114.133 44.5499C114.039 44.4196 113.926 44.3028 113.774 44.1186C112.974 45.2059 112.206 46.2304 111.46 47.2684C110.817 48.1625 110.184 49.0657 109.559 49.9688C109.298 50.3417 108.997 50.5664 108.503 50.5664C103.444 50.5664 98.3798 50.5799 93.3203 50.5934C92.6733 50.5934 92.0263 50.5934 91.3523 50.5934C91.3523 49.0162 91.3523 47.511 91.3523 46.0012C91.3613 40.9239 91.3748 35.851 91.3882 30.7736C91.3882 29.5289 91.3882 29.5334 92.6688 29.5379C95.9938 29.5514 99.3189 29.5694 102.644 29.5739C104.473 29.5739 106.301 29.5739 108.13 29.5199C108.813 29.502 109.262 29.6952 109.662 30.2838C110.97 32.1889 112.345 34.0536 113.738 35.9902C113.917 35.8015 114.097 35.6532 114.228 35.469C115.562 33.6043 116.883 31.7261 118.231 29.8704C118.348 29.7131 118.626 29.5963 118.833 29.5963C121.147 29.5649 123.461 29.5514 125.78 29.5514C129.123 29.5514 132.466 29.5694 135.809 29.5963C136.024 29.5963 136.33 29.7266 136.447 29.8929C137.233 31.0476 137.979 32.2339 138.734 33.4111C138.81 33.5279 138.864 33.6627 138.967 33.8694H133.886C133.886 34.503 133.886 35.0736 133.886 35.6443C133.895 40.0836 133.904 44.5275 133.917 48.9668C133.917 49.3577 133.975 49.7531 133.935 50.1395C133.917 50.3013 133.719 50.5709 133.594 50.5754C132.084 50.6113 130.57 50.6113 129.055 50.6158C128.947 50.6158 128.844 50.5664 128.691 50.5305L128.682 50.5484ZM103.268 50.1395C103.34 50.162 103.417 50.18 103.489 50.2025C103.646 50.0003 103.808 49.807 103.956 49.6004C106.117 46.6078 108.265 43.6018 110.449 40.6228C110.745 40.2184 110.75 39.9533 110.462 39.5579C108.328 36.6148 106.212 33.6537 104.082 30.7062C103.88 30.4276 103.632 30.1804 103.295 29.785C103.273 30.1535 103.25 30.3512 103.25 30.5444C103.25 31.4386 103.241 32.3372 103.259 33.2314C103.268 33.5863 103.156 33.7301 102.779 33.7211C100.689 33.6942 98.5954 33.6897 96.5061 33.6807C96.4207 33.6807 96.3308 33.7077 96.214 33.7256V37.7022C96.5106 37.7157 96.8026 37.7426 97.0947 37.7471C98.4966 37.7561 99.894 37.7696 101.296 37.7606C101.804 37.7606 102.019 37.8864 101.965 38.4705C101.885 39.3602 101.871 40.2633 101.934 41.153C101.97 41.6742 101.822 41.8135 101.345 41.809C99.9659 41.7955 98.582 41.8045 97.198 41.8045C96.87 41.8045 96.542 41.8045 96.2275 41.8045V46.4191C98.3214 46.4191 100.352 46.4146 102.388 46.4191C103.233 46.4191 103.259 46.4596 103.264 47.3088C103.264 48.2569 103.264 49.2005 103.264 50.1485L103.268 50.1395Z" fill="white"/>
<path d="M71.847 40.0656C71.847 36.745 71.847 33.42 71.847 30.0995C71.847 29.8209 71.8021 29.5154 72.2424 29.5244C75.1541 29.5828 78.0837 29.466 80.9729 29.7311C85.7627 30.1714 89.4696 34.2468 89.7617 39.0501C89.9055 41.4315 89.5999 43.7051 88.2475 45.7406C86.3558 48.5848 83.6553 50.153 80.2899 50.4226C77.877 50.6158 75.4416 50.5574 73.0153 50.5933C71.8605 50.6113 71.865 50.5888 71.865 49.4161C71.865 46.2977 71.865 43.1839 71.865 40.0656C71.856 40.0656 71.8515 40.0656 71.8425 40.0656H71.847ZM76.7447 33.7166V46.4056C77.6029 46.4056 78.4297 46.473 79.2385 46.3921C81.5525 46.1674 83.3678 45.152 84.2754 42.8963C84.7787 41.6472 84.9179 40.3262 84.7517 38.9962C84.4956 36.9652 83.4756 35.415 81.6603 34.413C80.1057 33.5593 78.4252 33.7211 76.7492 33.7121L76.7447 33.7166Z" fill="white"/>
<path d="M182.777 49.5015C182.745 49.8116 182.718 50.0273 182.691 50.2834H173.727V34.3592H177.839C177.839 34.7636 177.839 35.1725 177.839 35.5769C177.825 39.1221 177.816 42.6718 177.798 46.217C177.798 46.554 177.821 46.7831 178.261 46.7831C179.771 46.7831 181.285 46.8325 182.795 46.8325C182.938 46.8325 183.127 46.6843 183.222 46.554C183.415 46.2844 183.554 45.9788 183.729 45.6643C184.215 45.9743 184.682 46.3023 185.172 46.5854C186.111 47.1246 187.122 47.3088 188.196 47.0887C188.811 46.9628 189.355 46.4506 189.431 45.9339C189.535 45.2464 189.328 44.7701 188.622 44.4376C187.953 44.1186 187.234 43.9029 186.533 43.6468C186.043 43.4671 185.545 43.3098 185.064 43.1121C183.253 42.3707 182.368 40.7082 182.624 38.7536C183.109 35.0961 185.962 33.6583 188.973 34.0627C190.249 34.2334 191.489 34.7052 192.743 35.0422C192.828 35.0647 192.896 35.1366 193.048 35.2354C192.505 36.2958 191.97 37.3428 191.498 38.2594C190.609 37.9404 189.854 37.5944 189.058 37.4146C188.645 37.3203 188.133 37.4506 187.715 37.6124C187.207 37.8101 186.875 38.2594 186.843 38.821C186.812 39.3872 187.292 39.6343 187.701 39.8141C188.483 40.16 189.305 40.4162 190.114 40.6947C191.098 41.0317 191.997 41.4811 192.725 42.2584C193.552 43.1436 193.799 44.2085 193.731 45.3587C193.556 48.4142 191.386 50.4991 188.268 50.6383C186.762 50.7057 185.284 50.5799 183.905 49.879C183.568 49.7082 183.181 49.6229 182.772 49.4836L182.777 49.5015Z" fill="white"/>
<path d="M155.062 42.3706C155.166 45.2059 153.296 48.7241 149.765 50.0272C146.619 51.1909 143.622 50.8584 140.859 48.9712C136.155 45.7541 136.137 38.0751 141.717 35.1095C145.366 33.1729 149.989 33.766 152.744 36.6102C154.289 38.2054 155.026 40.1599 155.067 42.3751L155.062 42.3706ZM146.224 46.6662C148.745 46.6976 150.74 44.7745 150.771 42.2763C150.803 39.9982 148.722 37.9582 146.318 37.9223C143.784 37.8818 141.704 39.8858 141.681 42.3931C141.659 44.7296 143.685 46.6347 146.224 46.6662Z" fill="white"/>
<path d="M172.874 42.2405C172.995 46.4776 169.643 50.562 164.381 50.6608C162.705 50.6923 161.124 50.3868 159.65 49.569C156.253 47.6818 154.725 44.3074 155.521 40.5061C156.289 36.8216 159.192 34.6333 162.643 34.0942C164.552 33.7931 166.408 34.0178 168.151 34.876C171.202 36.3812 172.793 38.8346 172.878 42.2405H172.874ZM164 46.6663C166.565 46.6978 168.56 44.8645 168.578 42.4561C168.596 39.9893 166.601 37.9629 164.116 37.9269C161.623 37.891 159.524 39.9129 159.506 42.3753C159.488 44.6758 161.542 46.6394 164 46.6708V46.6663Z" fill="white"/>
</svg>
