<svg width="370" height="81" viewBox="0 0 370 81" fill="none" xmlns="http://www.w3.org/2000/svg">
<path d="M353.509 52.6242C351.992 52.6171 350.482 52.5813 348.965 52.6099C348.357 52.6242 348.135 52.4596 348.135 51.8156C348.157 43.1064 348.164 34.39 348.135 25.6808C348.135 24.9366 348.414 24.7791 349.066 24.7863C350.547 24.8006 352.021 24.7648 353.502 24.7505V52.6242H353.509Z" fill="white"/>
<path d="M260.001 34.9433C261.139 33.691 262.528 32.8823 264.173 32.546C266.964 31.9735 269.297 32.6891 270.993 35.0507C271.43 35.6661 271.752 35.7448 272.288 35.158C274.271 32.9897 276.775 32.1667 279.681 32.41C281.699 32.5817 284.046 34.3851 284.568 36.4318C284.969 37.9919 285.212 39.6235 285.262 41.2337C285.384 44.7761 285.334 48.3327 285.37 51.8751C285.37 52.3474 285.255 52.6122 284.74 52.605C283.259 52.605 281.77 52.605 280.246 52.605C280.21 52.4047 280.153 52.2401 280.153 52.0755C280.153 48.3184 280.189 44.5614 280.167 40.8115C280.167 40.0887 280.031 39.3301 279.795 38.6503C279.387 37.4623 278.543 36.9185 277.276 36.9542C276.432 36.9757 275.494 36.9185 274.757 37.2476C273.068 37.9991 272.41 39.4876 272.417 41.2981C272.431 44.6973 272.389 48.1037 272.439 51.503C272.453 52.4047 272.188 52.6981 271.279 52.6337C270.07 52.5549 268.846 52.6122 267.501 52.6122C267.501 52.3188 267.501 52.0325 267.501 51.7534C267.508 48.4687 267.573 45.184 267.501 41.9064C267.479 40.7757 267.215 39.6307 266.9 38.5429C266.592 37.4766 265.748 36.9686 264.617 36.8898C261.59 36.6823 259.772 38.3282 259.708 41.4842C259.658 44.2322 259.708 46.9874 259.708 49.7354C259.708 50.4725 259.665 51.2167 259.679 51.9538C259.694 52.4762 259.529 52.6838 258.957 52.6551C257.826 52.5979 256.695 52.6122 255.565 52.6265C255.014 52.6337 254.77 52.4834 254.777 51.8751C254.82 45.7565 254.842 39.6307 254.856 33.5121C254.856 33.004 254.971 32.7607 255.55 32.7821C256.652 32.8179 257.754 32.8036 258.849 32.7463C259.458 32.7106 259.636 32.9539 259.629 33.5049C259.629 33.9629 259.708 34.4138 259.758 34.8718C259.844 34.9004 259.93 34.929 260.009 34.9505L260.001 34.9433Z" fill="white"/>
<path d="M108.542 38.4263C109.558 44.6809 106.767 50.1483 101.3 52.1235C93.9794 54.7642 86.1149 51.4222 83.3813 44.0011C80.4759 36.1148 85.3635 27.4128 94.4589 26.0245C98.9529 25.3375 102.903 26.7043 106.266 29.7529C106.796 30.2324 106.968 30.5973 106.288 31.1555C105.315 31.957 104.442 32.8874 103.569 33.7175C102.66 33.102 101.78 32.3936 100.799 31.8569C96.2407 29.345 90.7306 31.177 88.6911 35.9359C86.623 40.7664 89.2707 45.8403 93.4856 47.4862C96.3266 48.5954 99.0745 48.5167 101.529 46.4915C102.545 45.6542 103.268 44.5951 103.34 43.2067C101.35 43.2067 99.4252 43.2067 97.5002 43.2067C96.2765 43.2067 96.2336 43.1638 96.2336 41.9615C96.2336 41.0169 96.1906 40.0651 96.255 39.1205C96.2694 38.8772 96.62 38.455 96.8204 38.455C100.713 38.412 104.606 38.4263 108.535 38.4263H108.542Z" fill="white"/>
<path d="M338.118 34.9877C338.09 34.408 338.133 34.0788 338.054 33.7783C337.846 33.0197 338.125 32.7549 338.891 32.7692C340.022 32.7907 341.152 32.7692 342.283 32.7263C342.82 32.7048 342.956 32.9553 342.956 33.4133C342.956 39.5391 342.956 45.6577 342.97 51.7835C342.97 52.3989 342.777 52.6279 342.147 52.6065C341.138 52.5707 340.122 52.6136 339.113 52.6065C338.032 52.5922 337.846 52.3632 338.04 51.3183C338.104 50.9534 338.19 50.5884 338.311 50.0231C337.524 50.6027 336.909 51.0893 336.265 51.533C331.971 54.4957 327.098 52.8856 324.572 49.1571C322.976 46.8027 321.996 44.1764 322.454 41.2852C323.334 35.7248 327.62 31.3666 333.431 32.4401C334.791 32.6905 336.007 33.6924 337.281 34.3651C337.503 34.4868 337.696 34.6728 338.118 34.9877ZM327.763 42.2155C327.678 44.1549 327.871 44.9922 328.572 46.2445C329.717 48.2841 333.08 49.6652 335.678 47.7259C338.197 45.8509 338.784 42.6449 337.467 39.625C336.022 36.3259 330.59 35.8321 328.615 38.9737C327.935 40.0543 327.663 41.1779 327.763 42.2155Z" fill="white"/>
<path d="M159.986 52.5513H155.042C155.02 52.2364 154.991 51.986 154.991 51.7283C154.984 43.0048 154.984 34.2813 154.956 25.5506C154.956 24.928 155.142 24.7205 155.764 24.7348C157.124 24.7706 158.491 24.742 159.936 24.742V40.3856C160.237 40.1423 160.416 40.0206 160.573 39.8775C162.741 37.7664 164.917 35.6696 167.064 33.5371C167.744 32.8644 168.509 32.5638 169.461 32.5853C170.828 32.6139 172.195 32.5853 173.561 32.5996C173.783 32.5996 174.012 32.664 174.37 32.9288C171.286 35.7197 168.194 38.5178 165.046 41.366C168.23 45.1016 171.343 48.7585 174.613 52.5942C172.524 52.5942 170.699 52.6229 168.881 52.5656C168.559 52.5585 168.18 52.2507 167.951 51.9788C166.091 49.7532 164.244 47.5133 162.419 45.2447C162.047 44.7796 161.797 44.7223 161.26 45.0515C160.294 45.6455 159.893 46.3826 159.965 47.5419C160.065 49.1807 159.994 50.8338 159.994 52.5442L159.986 52.5513Z" fill="white"/>
<path d="M116.241 43.8767C116.692 45.3509 117.293 46.5174 118.488 47.3332C121.1 49.1151 124.606 48.9792 127.004 46.9253C127.447 46.546 127.691 46.589 128.005 47.004C128.599 47.7841 129.172 48.5712 129.802 49.3227C130.231 49.8308 129.966 50.0884 129.565 50.3818C126.481 52.6289 123.096 53.6021 119.318 52.6789C115.125 51.6556 112.276 49.0865 111.568 44.8214C110.351 37.5363 115.132 31.7111 122.71 32.2263C126.56 32.4911 130.131 35.9046 130.703 39.812C130.861 40.8854 130.818 41.9875 130.889 43.0824C130.932 43.705 130.646 43.8982 130.045 43.8982C126.181 43.8767 122.309 43.8839 118.445 43.8767C117.744 43.8767 117.042 43.8767 116.248 43.8767H116.241ZM116.498 39.9766C117.515 40.3558 125.494 40.3129 126.109 39.9479C125.587 38.0229 123.819 36.792 121.544 36.7634C118.824 36.7276 117.178 37.7653 116.498 39.9766Z" fill="white"/>
<path d="M220.72 43.928C221.064 46.1894 223.06 48.1144 225.536 48.4937C227.991 48.8658 230.188 48.2289 232.041 46.4613C232.907 47.6564 233.723 48.7728 234.539 49.8892C229.587 53.9826 223.132 54.3475 218.287 49.6387C216.906 48.3005 216.133 46.6116 215.954 44.6866C215.689 41.8741 215.825 39.1691 217.493 36.6787C220.641 31.977 226.81 31.2327 230.502 33.4011C233.351 35.0757 235.09 37.5446 235.197 40.951C235.218 41.6594 235.183 42.3751 235.218 43.0835C235.254 43.7205 235.039 43.9495 234.352 43.9423C229.98 43.9137 225.608 43.928 221.235 43.928C221.092 43.928 220.942 43.928 220.72 43.928ZM230.238 40.2497C230.009 39.0259 229.544 38.2173 228.678 37.5732C227.704 36.8504 226.602 37.015 225.522 36.8862C223.532 36.6429 222.244 37.6161 221.285 39.1834C221.142 39.4124 220.978 39.8561 221.078 39.9634C221.264 40.1638 221.636 40.264 221.937 40.264C224.341 40.2783 226.746 40.2568 229.15 40.2425C229.472 40.2425 229.787 40.2425 230.231 40.2425L230.238 40.2497Z" fill="white"/>
<path d="M174.966 42.7577C174.966 36.8824 179.596 32.2594 185.421 32.195C191.697 32.1306 196.048 36.8895 196.055 42.7076C196.055 48.2609 191.511 52.984 185.507 52.984C179.61 52.984 174.959 48.4684 174.966 42.7577ZM180.147 42.5645C180.147 42.7935 180.147 43.001 180.147 43.2085C180.233 46.0424 181.714 47.7957 184.684 48.5543C186.194 48.9407 188.885 48.1392 190.201 45.7991C190.953 44.468 190.989 43.0725 190.831 41.6699C190.602 39.6017 189.6 37.8628 187.604 37.1257C185.707 36.4315 183.732 36.546 182.058 37.9486C180.619 39.1581 179.961 40.711 180.147 42.5645Z" fill="white"/>
<path d="M301.07 52.6082V32.8712C301.929 32.8712 302.78 32.8712 303.632 32.8712C303.689 32.8712 303.754 32.8712 303.811 32.8712C304.426 32.8497 305.185 32.6064 305.621 32.8712C305.929 33.0572 305.793 33.9446 305.879 34.5099C305.9 34.6388 306.008 34.7604 306.079 34.9035C307.045 34.2738 307.926 33.5725 308.906 33.0715C312.298 31.3612 317.329 32.4776 318.509 36.8787C318.774 37.8663 319.01 38.8968 319.039 39.913C319.139 43.899 319.146 47.8922 319.211 51.8854C319.218 52.4937 318.982 52.6368 318.431 52.6297C317.214 52.6011 315.991 52.5796 314.774 52.6297C314.073 52.6583 313.915 52.3721 313.915 51.7495C313.944 48.4361 313.965 45.1299 313.965 41.8165C313.965 40.9578 313.915 40.099 313.844 39.2474C313.708 37.7374 312.828 36.893 311.303 36.8429C310.037 36.8 308.756 36.6497 307.625 37.5156C306.416 38.4459 305.893 39.6553 305.9 41.1295C305.915 44.679 305.915 48.2286 305.972 51.7709C305.986 52.4508 305.822 52.644 305.142 52.6154C303.811 52.5653 302.48 52.6011 301.063 52.6011L301.07 52.6082Z" fill="white"/>
<path d="M209.331 31.0695C209.331 33.9106 209.323 36.6014 209.331 39.285C209.352 43.3354 209.388 47.3931 209.409 51.4435C209.409 52.5671 209.366 52.61 208.272 52.61C206.933 52.61 205.602 52.61 204.178 52.61C204.178 51.923 204.178 51.2503 204.178 50.5848C204.157 44.2872 204.121 37.9825 204.121 31.685C204.121 31.0552 203.785 31.1196 203.391 31.1196C201.488 31.1196 199.584 31.0839 197.681 31.1268C196.929 31.1411 196.686 30.9264 196.743 30.175C196.815 29.2304 196.808 28.2786 196.743 27.3411C196.686 26.5539 196.951 26.3178 197.738 26.3178C202.733 26.3464 207.735 26.3249 212.73 26.3178C214.011 26.3178 215.292 26.3464 216.565 26.3178C217.138 26.3035 217.281 26.5325 217.267 27.0477C217.245 28.0854 217.224 29.123 217.281 30.1535C217.317 30.8262 217.045 31.0695 216.422 31.0695C214.547 31.0695 212.673 31.0695 210.805 31.0695C210.332 31.0695 209.86 31.0695 209.331 31.0695Z" fill="white"/>
<path d="M149.029 45.8815C149.98 46.9692 150.868 47.9854 151.812 49.0732C150.374 50.8909 148.506 52.0359 146.302 52.5869C141.486 53.7892 137.114 52.0502 134.845 48.1285C132.391 43.892 132.92 38.4461 136.384 35.1041C139.375 32.2201 143.06 31.4186 147.011 32.8499C148.506 33.3938 149.823 34.4457 151.161 35.3474C151.784 35.7696 151.834 36.3708 151.24 36.9862C150.524 37.7233 149.88 38.5391 149.179 39.3549C148.485 38.8111 147.876 38.303 147.232 37.8378C145.436 36.5497 142.552 36.3708 140.842 37.5301C138.781 38.9184 137.965 40.9579 138.273 43.3696C138.559 45.6596 139.633 47.4558 141.987 48.2144C144.42 48.9945 146.481 48.3218 148.27 46.5971C148.52 46.3609 148.771 46.1248 149.036 45.8743L149.029 45.8815Z" fill="white"/>
<path d="M244.05 35.5961C246.054 32.7551 248.744 31.8391 252.129 32.5977C251.693 34.4798 251.277 36.3046 250.841 38.1653C248.852 37.1419 247.027 37.2993 245.381 38.8594C244.315 39.8684 243.935 41.1637 243.935 42.5521C243.921 45.6006 243.964 48.6421 244.036 51.6906C244.05 52.3419 243.885 52.6281 243.213 52.621C241.874 52.6067 240.543 52.621 239.184 52.621C239.134 52.4778 239.062 52.3705 239.062 52.2703C239.055 46.2375 239.055 40.2048 239.048 34.172C239.048 34.0504 239.048 33.9359 239.055 33.8142C239.105 32.6978 239.112 32.7122 240.243 32.7479C241.166 32.7766 242.089 32.8052 243.005 32.7408C243.713 32.6907 243.892 32.9841 243.864 33.6067C243.835 34.215 243.864 34.8304 243.864 35.4387C243.928 35.4888 243.993 35.546 244.05 35.5961Z" fill="white"/>
<path d="M290.669 52.6035C290.669 51.9523 290.669 51.3726 290.669 50.793C290.669 45.0894 290.683 39.3858 290.654 33.6823C290.654 32.9666 290.805 32.6804 291.592 32.752C292.508 32.8378 293.438 32.8092 294.354 32.7376C295.07 32.6804 295.342 32.845 295.342 33.625C295.32 39.4145 295.356 45.2111 295.356 51.0005C295.356 52.6107 295.32 52.6107 293.674 52.6107C292.701 52.6107 291.728 52.6107 290.669 52.6107V52.6035Z" fill="white"/>
<path d="M289.921 26.1205C289.921 24.4244 291.195 23.1721 292.906 23.1792C294.695 23.1935 296.004 24.3314 295.997 25.8772C295.997 27.6662 294.659 29.1189 292.941 28.9758C291.41 28.847 289.65 28.0384 289.921 26.1205Z" fill="white"/>
<path d="M64.4161 30.2709C65.1818 31.0581 66.062 31.8167 66.7561 32.7184C67.7222 33.9707 68.8386 35.2302 69.3753 36.6758C70.7635 40.3971 70.1768 43.9537 67.4074 46.8878C64.273 50.2012 60.9526 53.3428 57.7324 56.5846C55.7215 58.6026 53.725 60.6279 51.7714 62.6889C49.6818 64.893 47.2201 66.3887 44.143 66.6821C40.9514 66.9827 38.1319 66.0523 35.8277 63.8267C32.1208 60.2343 28.4641 56.5989 24.793 52.9707C22.8108 51.0098 20.8643 49.0204 18.8964 47.0453C15.1753 43.3025 15.5903 36.4826 19.1755 32.9617C24.7501 27.5014 30.1815 21.9052 35.8133 16.5094C39.7492 12.7452 45.517 12.3516 49.8678 16.1373C51.0987 17.2107 52.258 18.3557 53.4745 19.4435C53.6534 19.6009 53.954 19.7727 54.1543 19.7297C56.2224 19.286 57.6536 20.2307 58.7843 21.7979C59.1779 22.3418 59.5357 22.7855 60.2942 22.5636C60.3944 22.535 60.5447 22.5636 60.6377 22.6137C62.3695 23.6585 64.4447 24.1308 65.8187 25.7768C66.6703 26.793 66.7633 27.1436 66.0262 28.2815C65.5826 28.9613 65.0029 29.5553 64.409 30.2781L64.4161 30.2709ZM32.0564 44.3259C32.9795 45.2776 34.0029 46.3439 35.0476 47.3888C37.5451 49.8791 40.064 52.3481 42.5615 54.8456C43.1412 55.4253 43.5419 55.4682 44.143 54.7883C45.3023 53.4787 46.5117 52.2049 47.8212 51.0599C48.7944 50.2155 49.1165 49.2923 48.8875 48.0901C48.8517 47.9183 48.8517 47.7394 48.8374 47.5605C48.4724 43.6102 49.875 40.1251 51.8 36.8118C52.8877 34.9368 54.7841 34.0924 56.6947 33.3052C58.448 32.5824 60.2155 31.8954 61.9043 31.0438C63.1996 30.3926 64.3803 29.5338 65.0459 28.1384C65.4037 27.3941 65.4466 26.75 64.688 26.3135C63.2568 25.4905 61.8614 24.5387 60.3157 24.0092C58.7986 23.4868 57.5821 22.7783 56.5731 21.5331C56.1151 20.9749 55.3065 20.5312 54.5837 20.3809C53.0451 20.0732 51.707 20.7173 50.655 21.8122C50.1899 22.2917 49.7176 22.4276 49.1021 22.492C47.6924 22.6495 46.254 22.7425 44.9087 23.1218C40.6437 24.3241 37.7169 27.0077 36.3214 31.237C36.1711 31.7022 36.0924 32.2246 36.1282 32.7112C36.3214 35.4306 35.8849 38.0069 34.4966 40.3828C33.7309 41.6924 32.8937 42.9662 32.0493 44.3116L32.0564 44.3259ZM52.2437 46.3082C52.3725 46.2437 52.4655 46.2223 52.5228 46.165C54.4263 44.3044 56.3226 42.4438 58.219 40.5831C58.6412 40.1681 58.3764 39.846 58.0615 39.5383C57.0382 38.515 56.0221 37.4773 54.9916 36.4611C54.2903 35.767 54.2044 35.8027 53.589 36.6114C51.3348 39.5812 51.1631 42.8374 52.2437 46.3153V46.3082ZM35.3053 32.4679C35.0119 32.6898 34.8473 32.7971 34.7113 32.9331C32.9724 34.672 31.2192 36.3967 29.5017 38.1572C27.2905 40.4257 27.0329 39.6743 29.6234 42.3722C29.6878 42.4366 29.7522 42.5296 29.8237 42.5368C30.1171 42.5654 30.5393 42.6942 30.6825 42.5511C31.6414 41.5993 32.8364 40.7334 33.4018 39.5669C34.3177 37.6777 34.833 35.5952 35.4699 33.5843C35.5557 33.298 35.384 32.9331 35.3053 32.4679Z" fill="white"/>
<path d="M56.9838 24.0527C56.9552 25.348 56.1751 26.5216 55.0087 26.9725C53.8208 27.4305 52.7188 27.2587 51.767 26.4214C50.8009 25.5699 50.4718 24.2459 50.8868 23.1152C51.0657 22.6286 51.2518 22.2279 51.903 22.6501C53.1696 23.4802 53.5346 23.3943 54.4434 22.1921C54.5865 22.006 54.7153 21.7985 54.8155 21.591C55.0302 21.1043 55.388 21.1544 55.6599 21.4478C56.3397 22.1921 56.9838 22.9721 56.9838 24.0599V24.0527Z" fill="white"/>
</svg>
