<svg width="352" height="342" viewBox="0 0 352 342" fill="none" xmlns="http://www.w3.org/2000/svg">
<path d="M341.866 171.031C341.866 207.46 330.22 242.935 308.629 272.275C287.037 301.616 256.631 323.286 221.85 334.12C187.07 344.954 149.736 344.385 115.302 332.497C80.8675 320.609 51.1354 298.023 30.4475 268.038C9.75948 238.054 -0.800824 202.241 0.308604 165.829C1.41803 129.416 14.1391 94.3127 36.6142 65.6432C59.0892 36.9737 90.1412 16.2402 125.236 6.47022C160.33 -3.29976 197.629 -1.59444 231.685 11.3372L171.048 171.031H341.866Z" fill="#444444"/>
<path d="M245.681 6.26938L180.726 164.256L296.379 38.545C292.843 35.2917 289.171 32.1894 285.375 29.2466C273.301 19.8881 259.962 12.1411 245.681 6.26938Z" fill="#FFFDD0"/>
<path d="M339.152 100.381C334.763 89.4941 329.242 79.036 322.644 69.1866C315.091 57.9113 306.263 47.6378 296.379 38.545L180.726 164.256L339.152 100.381Z" fill="#FFEE93"/>
<path d="M180.726 164.256L351.544 164.3C351.55 142.287 347.302 120.595 339.152 100.381L180.726 164.256Z" fill="#FFD70F"/>
</svg>
