<svg width="11" height="10" viewBox="0 0 11 10" fill="none" xmlns="http://www.w3.org/2000/svg">
<path d="M0.979609 5.26V3.78H2.53961L3.97961 4.04L4.07961 3.78L2.87961 2.96L1.77961 1.84L2.81961 0.799999L3.93961 1.9L4.75961 3.1L5.01961 3L4.75961 1.56V-9.53674e-07H6.23961V1.56L5.97961 3L6.23961 3.1L7.05961 1.9L8.17961 0.799999L9.21961 1.84L8.11961 2.96L6.91961 3.78L7.01961 4.04L8.45961 3.78H10.0196V5.26H8.45961L7.01961 5L6.91961 5.26L8.11961 6.08L9.21961 7.2L8.17961 8.24L7.05961 7.14L6.23961 5.94L5.97961 6.04L6.23961 7.48V9.04H4.75961V7.48L5.01961 6.04L4.75961 5.94L3.93961 7.14L2.81961 8.24L1.77961 7.2L2.87961 6.08L4.07961 5.26L3.97961 5L2.53961 5.26H0.979609Z" fill="#141414"/>
</svg>
