<svg width="512" height="775" viewBox="0 0 512 775" fill="none" xmlns="http://www.w3.org/2000/svg">
<g filter="url(#filter0_d_591_225)">
<rect y="54.0791" width="396" height="713" rx="40" transform="rotate(-7.84902 0 54.0791)" fill="#A6A6A6" shape-rendering="crispEdges"/>
<path d="M194.954 539.317L190.741 508.756L180.554 510.16L179.851 505.058L205.318 501.548L206.022 506.65L195.835 508.054L200.048 538.615L194.954 539.317ZM211.077 531.904L210.375 526.81L215.468 526.108L216.17 531.202L211.077 531.904ZM216.873 536.295L216.17 531.202L231.451 529.095L230.749 524.002L215.468 526.108L214.766 521.015L230.046 518.908L229.344 513.815L234.438 513.113L237.246 533.487L216.873 536.295ZM214.064 515.921L213.362 510.828L228.642 508.722L229.344 513.815L214.064 515.921ZM238.791 533.274L238.089 528.18L243.182 527.478L243.884 532.572L238.791 533.274ZM254.071 531.167L253.369 526.074L263.556 524.669L264.258 529.763L254.071 531.167ZM243.182 527.478L242.48 522.385L247.573 521.682L246.169 511.496L256.356 510.091L257.058 515.185L251.965 515.887L253.369 526.074L243.182 527.478ZM235.982 512.9L235.28 507.806L245.467 506.402L246.169 511.496L235.982 512.9ZM256.356 510.091L255.654 504.998L260.747 504.296L261.449 509.389L256.356 510.091ZM270.896 528.848L270.194 523.754L285.474 521.648L286.176 526.741L270.896 528.848ZM265.1 524.457L262.994 509.176L268.087 508.474L268.79 513.568L284.07 511.461L283.368 506.368L288.461 505.665L289.865 515.852L269.492 518.661L270.194 523.754L265.1 524.457ZM268.087 508.474L267.385 503.381L282.666 501.274L283.368 506.368L268.087 508.474ZM292.814 525.826L292.112 520.733L312.486 517.924L313.188 523.018L292.814 525.826ZM312.486 517.924L311.784 512.831L316.877 512.129L317.579 517.222L312.486 517.924ZM296.503 514.937L295.801 509.844L311.082 507.737L311.784 512.831L296.503 514.937ZM290.708 510.546L290.006 505.453L295.099 504.75L295.801 509.844L290.708 510.546ZM295.099 504.75L294.397 499.657L314.771 496.848L315.473 501.942L295.099 504.75Z" fill="#1C1C1C"/>
<path d="M218.006 649.304L216.991 641.947L239.063 638.904L240.077 646.262L218.006 649.304ZM209.634 642.961L208.62 635.604L215.977 634.59L216.991 641.947L209.634 642.961ZM239.063 638.904L236.02 616.833L243.377 615.819L246.42 637.89L239.063 638.904ZM206.592 620.89L203.547 598.806L240.333 593.735L241.349 601.104L211.92 605.161L212.935 612.518L235.006 609.476L236.02 616.833L206.592 620.89ZM248.651 637.583L247.637 630.225L254.994 629.211L256.008 636.568L248.651 637.583ZM254.994 629.211L253.98 621.854L261.337 620.84L262.351 628.197L254.994 629.211ZM261.337 620.84L260.323 613.483L267.68 612.468L268.694 619.826L261.337 620.84ZM267.68 612.468L266.666 605.111L274.023 604.097L275.037 611.454L267.68 612.468ZM274.023 604.097L273.009 596.74L280.366 595.726L281.38 603.083L274.023 604.097ZM296.04 638.547L295.025 631.19L317.097 628.147L318.111 635.504L296.04 638.547ZM287.668 632.204L286.654 624.847L294.011 623.833L295.025 631.19L287.668 632.204ZM317.097 628.147L314.054 606.076L321.411 605.061L324.454 627.133L317.097 628.147ZM284.625 610.132L281.581 588.048L318.367 582.977L319.383 590.347L289.954 594.404L290.968 601.761L313.04 598.718L314.054 606.076L284.625 610.132Z" fill="#1C1C1C"/>
<g clip-path="url(#clip0_591_225)">
<rect x="27.3258" y="76.5581" width="348" height="350" rx="32" transform="rotate(-7.84902 27.3258 76.5581)" fill="#1C1C1C"/>
<path fill-rule="evenodd" clip-rule="evenodd" d="M316.659 215.059L270.195 424.397C270.135 424.665 270.071 424.932 270.003 425.197C269.885 425.77 269.763 426.344 269.636 426.917C256.651 485.417 198.702 522.314 140.203 509.329C81.704 496.345 44.8068 438.396 57.7911 379.897C57.8327 379.71 57.8747 379.523 57.9172 379.336C57.9356 379.248 57.9545 379.161 57.9739 379.073L99.386 192.496C101.162 184.495 109.088 179.448 117.089 181.224C125.09 183 130.136 190.926 128.36 198.927L102.922 313.537C110.095 308.686 117.841 304.692 125.991 301.662L158.164 156.71C159.824 149.234 167.23 144.518 174.706 146.178C182.183 147.837 186.898 155.243 185.239 162.72L155.842 295.164C162.683 294.67 169.649 294.823 176.661 295.674L196.44 206.563C198.274 198.3 206.459 193.088 214.723 194.922C222.986 196.756 228.198 204.942 226.364 213.205L206.301 303.594C212.433 306.202 218.235 309.339 223.664 312.939L235.033 261.719C236.722 254.111 244.258 249.313 251.865 251.001C259.473 252.69 264.271 260.226 262.582 267.833L249.747 325.661C248.845 329.727 251.409 333.755 255.475 334.657C259.542 335.56 263.569 332.995 264.472 328.929L291.01 209.366C292.582 202.283 299.598 197.816 306.681 199.388C313.764 200.96 318.231 207.976 316.659 215.059ZM281.397 184.711C283.132 176.894 278.201 169.149 270.383 167.414C262.566 165.679 254.821 170.61 253.086 178.428L248.752 197.952C247.017 205.77 251.948 213.515 259.766 215.25C267.584 216.985 275.328 212.054 277.063 204.236L281.397 184.711Z" fill="#575757"/>
</g>
</g>
<defs>
<filter id="filter0_d_591_225" x="0" y="0" width="517.66" height="780.399" filterUnits="userSpaceOnUse" color-interpolation-filters="sRGB">
<feFlood flood-opacity="0" result="BackgroundImageFix"/>
<feColorMatrix in="SourceAlpha" type="matrix" values="0 0 0 0 0 0 0 0 0 0 0 0 0 0 0 0 0 0 127 0" result="hardAlpha"/>
<feOffset dx="24" dy="16"/>
<feGaussianBlur stdDeviation="2"/>
<feComposite in2="hardAlpha" operator="out"/>
<feColorMatrix type="matrix" values="0 0 0 0 0.218461 0 0 0 0 0.218461 0 0 0 0 0.218461 0 0 0 1 0"/>
<feBlend mode="normal" in2="BackgroundImageFix" result="effect1_dropShadow_591_225"/>
<feBlend mode="normal" in="SourceGraphic" in2="effect1_dropShadow_591_225" result="shape"/>
</filter>
<clipPath id="clip0_591_225">
<rect x="27.3258" y="76.5581" width="348" height="350" rx="32" transform="rotate(-7.84902 27.3258 76.5581)" fill="white"/>
</clipPath>
</defs>
</svg>
